<svg width="1866" height="78" viewBox="0 0 1866 78" fill="none" xmlns="http://www.w3.org/2000/svg">
<g filter="url(#filter0_d_40_14)">
<rect x="1828.68" y="24.6221" width="9.80946" height="28.9667" fill="#EF2E37"/>
</g>
<path d="M1797.49 58.3882V19.0236H1829.15V58.3882H1797.49Z" stroke="#EF2E37"/>
<rect x="1797.95" y="19.5144" width="30.7318" height="10.4281" fill="#E5E5E5"/>
<rect x="1797.95" y="29.9425" width="30.7318" height="17.4909" fill="#C4C3C6"/>
<rect x="1797.95" y="47.4333" width="30.7318" height="10.4281" fill="#8B8B8B"/>
<path d="M1804.74 9.11365V8.61365H1804.24H1675.9H1675.4V9.11365V69.5136V70.0136H1675.9H1804.24H1804.74V69.5136V9.11365Z" fill="#C4C3C6" stroke="#EF2E37"/>
<rect x="1689.24" y="19.0236" width="101.668" height="40.5802" fill="#D9D9D9"/>
<path d="M1689.24 19.2318L1675.74 9.23181H1804.24L1790.74 19.2318H1689.24Z" fill="#C4C4C4"/>
<path d="M1804.24 9.23181L1790.74 19.2318V59.7318L1804.24 69.5048V9.23181Z" fill="#E5E5E5"/>
<path d="M1689.24 19.2318L1675.74 9.23181L1675.92 69.4956L1689.24 59.7318V19.2318Z" fill="#B7B7B7"/>
<rect x="1257.07" y="31.2439" width="52.1996" height="19.2469" fill="#363636" fill-opacity="0.33" stroke="#EF2E37"/>
<rect x="629.11" y="31.2439" width="52.1996" height="19.2469" fill="#363636" fill-opacity="0.33" stroke="#EF2E37"/>
<rect x="210.423" y="31.2778" width="52.1996" height="19.2469" fill="#363636" fill-opacity="0.33" stroke="#EF2E37"/>
<rect x="1047.73" y="31.2439" width="52.1996" height="19.2469" fill="#363636" fill-opacity="0.33" stroke="#EF2E37"/>
<rect x="419.766" y="31.2439" width="52.1996" height="19.2469" fill="#363636" fill-opacity="0.33" stroke="#EF2E37"/>
<rect x="1.07941" y="31.2778" width="52.1996" height="19.2469" fill="#363636" fill-opacity="0.33" stroke="#EF2E37"/>
<rect x="1466.35" y="31.2439" width="52.1996" height="19.2469" fill="#363636" fill-opacity="0.33" stroke="#EF2E37"/>
<rect x="838.388" y="31.2439" width="52.1996" height="19.2469" fill="#363636" fill-opacity="0.33" stroke="#EF2E37"/>
<rect x="1361.44" y="31.2439" width="52.1996" height="19.2469" fill="#363636" fill-opacity="0.33" stroke="#EF2E37"/>
<rect x="733.474" y="31.2439" width="52.1996" height="19.2469" fill="#363636" fill-opacity="0.33" stroke="#EF2E37"/>
<rect x="314.787" y="31.2778" width="52.1996" height="19.2469" fill="#363636" fill-opacity="0.33" stroke="#EF2E37"/>
<rect x="1152.1" y="31.2439" width="52.1996" height="19.2469" fill="#363636" fill-opacity="0.33" stroke="#EF2E37"/>
<rect x="524.13" y="31.2439" width="52.1996" height="19.2469" fill="#363636" fill-opacity="0.33" stroke="#EF2E37"/>
<rect x="105.443" y="31.2778" width="52.1996" height="19.2469" fill="#363636" fill-opacity="0.33" stroke="#EF2E37"/>
<rect x="1570.72" y="31.2439" width="52.1996" height="19.2469" fill="#363636" fill-opacity="0.33" stroke="#EF2E37"/>
<rect x="942.751" y="31.2439" width="52.1996" height="19.2469" fill="#363636" fill-opacity="0.33" stroke="#EF2E37"/>
<rect x="1309.24" y="31.2439" width="52.1996" height="19.2469" fill="#363636" fill-opacity="0.33" stroke="#EF2E37"/>
<rect x="681.276" y="31.2439" width="52.1996" height="19.2469" fill="#363636" fill-opacity="0.33" stroke="#EF2E37"/>
<rect x="262.589" y="31.2778" width="52.1996" height="19.2469" fill="#363636" fill-opacity="0.33" stroke="#EF2E37"/>
<rect x="1099.9" y="31.2439" width="52.1996" height="19.2469" fill="#363636" fill-opacity="0.33" stroke="#EF2E37"/>
<rect x="471.933" y="31.2439" width="52.1996" height="19.2469" fill="#363636" fill-opacity="0.33" stroke="#EF2E37"/>
<rect x="53.2457" y="31.2778" width="52.1996" height="19.2469" fill="#363636" fill-opacity="0.33" stroke="#EF2E37"/>
<rect x="1518.52" y="31.2439" width="52.1996" height="19.2469" fill="#363636" fill-opacity="0.33" stroke="#EF2E37"/>
<rect x="890.554" y="31.2439" width="52.1996" height="19.2469" fill="#363636" fill-opacity="0.33" stroke="#EF2E37"/>
<rect x="1413.76" y="31.2439" width="52.1996" height="19.2469" fill="#363636" fill-opacity="0.33" stroke="#EF2E37"/>
<rect x="785.797" y="31.2439" width="52.1996" height="19.2469" fill="#363636" fill-opacity="0.33" stroke="#EF2E37"/>
<rect x="367.11" y="31.2778" width="52.1996" height="19.2469" fill="#363636" fill-opacity="0.33" stroke="#EF2E37"/>
<rect x="1204.42" y="31.2439" width="52.1996" height="19.2469" fill="#363636" fill-opacity="0.33" stroke="#EF2E37"/>
<rect x="576.454" y="31.2439" width="52.1996" height="19.2469" fill="#363636" fill-opacity="0.33" stroke="#EF2E37"/>
<rect x="157.767" y="31.2778" width="52.1996" height="19.2469" fill="#363636" fill-opacity="0.33" stroke="#EF2E37"/>
<rect x="1623.04" y="31.2439" width="52.1996" height="19.2469" fill="#363636" fill-opacity="0.33" stroke="#EF2E37"/>
<rect x="995.075" y="31.2439" width="52.1996" height="19.2469" fill="#363636" fill-opacity="0.33" stroke="#EF2E37"/>
<path d="M1257.12 40.2608C1262.68 40.6289 1265.96 42.5764 1271.53 42.4859C1275.28 42.4249 1280.68 40.0646 1284.43 39.799C1286.04 39.6842 1287.66 39.4422 1289.27 39.3561C1292.37 39.1917 1295.5 39.5485 1298.59 39.6703C1302.32 39.8175 1306 40.4879 1309.73 40.4879" stroke="#EF2E37" stroke-width="2"/>
<path d="M629.153 40.2608C634.716 40.6289 637.994 42.5764 643.563 42.4859C647.313 42.4249 652.719 40.0646 656.461 39.799C658.078 39.6842 659.691 39.4422 661.31 39.3561C664.402 39.1917 667.531 39.5485 670.621 39.6703C674.357 39.8175 678.031 40.4879 681.768 40.4879" stroke="#EF2E37" stroke-width="2"/>
<path d="M210.466 40.2947C216.029 40.6628 219.307 42.6103 224.876 42.5198C228.626 42.4588 234.032 40.0985 237.774 39.8329C239.391 39.7181 241.004 39.4761 242.623 39.3901C245.715 39.2257 248.844 39.5824 251.934 39.7042C255.67 39.8515 259.344 40.5218 263.081 40.5218" stroke="#EF2E37" stroke-width="2"/>
<path d="M1047.77 40.2608C1053.34 40.6289 1056.62 42.5764 1062.18 42.4859C1065.93 42.4249 1071.34 40.0646 1075.08 39.799C1076.7 39.6842 1078.31 39.4422 1079.93 39.3561C1083.02 39.1917 1086.15 39.5485 1089.24 39.6703C1092.98 39.8175 1096.65 40.4879 1100.39 40.4879" stroke="#EF2E37" stroke-width="2"/>
<path d="M419.81 40.2608C425.372 40.6289 428.651 42.5764 434.22 42.4859C437.97 42.4249 443.376 40.0646 447.117 39.799C448.734 39.6842 450.347 39.4422 451.966 39.3561C455.059 39.1917 458.187 39.5485 461.277 39.6703C465.014 39.8175 468.688 40.4879 472.424 40.4879" stroke="#EF2E37" stroke-width="2"/>
<path d="M1.12299 40.2947C6.68539 40.6628 9.96382 42.6103 15.5325 42.5198C19.2829 42.4588 24.6885 40.0985 28.4304 39.8329C30.0474 39.7181 31.6604 39.4761 33.2791 39.3901C36.3716 39.2257 39.5004 39.5824 42.5903 39.7042C46.3267 39.8515 50.001 40.5218 53.7373 40.5218" stroke="#EF2E37" stroke-width="2"/>
<path d="M1466.4 40.2608C1471.96 40.6289 1475.24 42.5764 1480.81 42.4859C1484.56 42.4249 1489.96 40.0646 1493.7 39.799C1495.32 39.6842 1496.93 39.4422 1498.55 39.3561C1501.64 39.1917 1504.77 39.5485 1507.86 39.6703C1511.6 39.8175 1515.27 40.4879 1519.01 40.4879" stroke="#EF2E37" stroke-width="2"/>
<path d="M838.431 40.2608C843.994 40.6289 847.272 42.5764 852.841 42.4859C856.591 42.4249 861.997 40.0646 865.739 39.799C867.356 39.6842 868.969 39.4422 870.587 39.3561C873.68 39.1917 876.809 39.5485 879.898 39.6703C883.635 39.8175 887.309 40.4879 891.045 40.4879" stroke="#EF2E37" stroke-width="2"/>
<path d="M1361.48 40.2608C1367.04 40.6289 1370.32 42.5764 1375.89 42.4859C1379.64 42.4249 1385.05 40.0646 1388.79 39.799C1390.41 39.6842 1392.02 39.4422 1393.64 39.3561C1396.73 39.1917 1399.86 39.5485 1402.95 39.6703C1406.69 39.8175 1410.36 40.4879 1414.1 40.4879" stroke="#EF2E37" stroke-width="2"/>
<path d="M733.517 40.2608C739.08 40.6289 742.358 42.5764 747.927 42.4859C751.677 42.4249 757.083 40.0646 760.825 39.799C762.442 39.6842 764.055 39.4422 765.673 39.3561C768.766 39.1917 771.895 39.5485 774.985 39.6703C778.721 39.8175 782.395 40.4879 786.132 40.4879" stroke="#EF2E37" stroke-width="2"/>
<path d="M314.83 40.2947C320.393 40.6628 323.671 42.6103 329.24 42.5198C332.99 42.4588 338.396 40.0985 342.138 39.8329C343.755 39.7181 345.368 39.4761 346.986 39.3901C350.079 39.2257 353.208 39.5824 356.298 39.7042C360.034 39.8515 363.708 40.5218 367.445 40.5218" stroke="#EF2E37" stroke-width="2"/>
<path d="M1152.14 40.2608C1157.7 40.6289 1160.98 42.5764 1166.55 42.4859C1170.3 42.4249 1175.7 40.0646 1179.45 39.799C1181.06 39.6842 1182.68 39.4422 1184.29 39.3561C1187.39 39.1917 1190.52 39.5485 1193.61 39.6703C1197.34 39.8175 1201.02 40.4879 1204.75 40.4879" stroke="#EF2E37" stroke-width="2"/>
<path d="M524.174 40.2608C529.736 40.6289 533.015 42.5764 538.583 42.4859C542.334 42.4249 547.739 40.0646 551.481 39.799C553.098 39.6842 554.711 39.4422 556.33 39.3561C559.422 39.1917 562.551 39.5485 565.641 39.6703C569.378 39.8175 573.052 40.4879 576.788 40.4879" stroke="#EF2E37" stroke-width="2"/>
<path d="M105.487 40.2947C111.049 40.6628 114.328 42.6103 119.896 42.5198C123.647 42.4588 129.052 40.0985 132.794 39.8329C134.411 39.7181 136.024 39.4761 137.643 39.3901C140.735 39.2257 143.864 39.5824 146.954 39.7042C150.691 39.8515 154.365 40.5218 158.101 40.5218" stroke="#EF2E37" stroke-width="2"/>
<path d="M1570.76 40.2608C1576.32 40.6289 1579.6 42.5764 1585.17 42.4859C1588.92 42.4249 1594.33 40.0646 1598.07 39.799C1599.68 39.6842 1601.3 39.4422 1602.92 39.3561C1606.01 39.1917 1609.14 39.5485 1612.23 39.6703C1615.96 39.8175 1619.64 40.4879 1623.37 40.4879" stroke="#EF2E37" stroke-width="2"/>
<path d="M942.795 40.2608C948.357 40.6289 951.636 42.5764 957.204 42.4859C960.955 42.4249 966.36 40.0646 970.102 39.799C971.719 39.6842 973.332 39.4422 974.951 39.3561C978.044 39.1917 981.172 39.5485 984.262 39.6703C987.999 39.8175 991.673 40.4879 995.409 40.4879" stroke="#EF2E37" stroke-width="2"/>
<defs>
<filter id="filter0_d_40_14" x="1807.58" y="0.52207" width="58.0094" height="77.1667" filterUnits="userSpaceOnUse" color-interpolation-filters="sRGB">
<feFlood flood-opacity="0" result="BackgroundImageFix"/>
<feColorMatrix in="SourceAlpha" type="matrix" values="0 0 0 0 0 0 0 0 0 0 0 0 0 0 0 0 0 0 127 0" result="hardAlpha"/>
<feMorphology radius="10" operator="dilate" in="SourceAlpha" result="effect1_dropShadow_40_14"/>
<feOffset dx="3"/>
<feGaussianBlur stdDeviation="7.05"/>
<feComposite in2="hardAlpha" operator="out"/>
<feColorMatrix type="matrix" values="0 0 0 0 0.937255 0 0 0 0 0.180392 0 0 0 0 0.215686 0 0 0 0.33 0"/>
<feBlend mode="normal" in2="BackgroundImageFix" result="effect1_dropShadow_40_14"/>
<feBlend mode="normal" in="SourceGraphic" in2="effect1_dropShadow_40_14" result="shape"/>
</filter>
</defs>
</svg>
