<svg width="1333" height="78" viewBox="0 0 1333 78" fill="none" xmlns="http://www.w3.org/2000/svg">
<g filter="url(#filter0_d_38_84)">
<rect x="1295.74" y="24.8084" width="9.80946" height="28.9667" fill="#EF2E37"/>
</g>
<path d="M1264.54 58.5745V19.2099H1296.2V58.5745H1264.54Z" stroke="#EF2E37"/>
<rect x="1265.01" y="19.7007" width="30.7318" height="10.4281" fill="#E5E5E5"/>
<rect x="1265.01" y="30.1288" width="30.7318" height="17.4909" fill="#C4C3C6"/>
<rect x="1265.01" y="47.6197" width="30.7318" height="10.4281" fill="#8B8B8B"/>
<path d="M1142.95 8.79999H1142.45V9.29999V69.7V70.2H1142.95H1271.3H1271.8V69.7V9.29999V8.79999H1271.3H1142.95Z" fill="#C4C3C6" stroke="#EF2E37"/>
<rect x="1156.29" y="19.2099" width="101.668" height="40.5802" fill="#D9D9D9"/>
<path d="M1156.29 19.4181L1142.79 9.41812H1271.29L1257.79 19.4181H1156.29Z" fill="#C4C4C4"/>
<path d="M1271.29 9.41812L1257.79 19.4181V59.9181L1271.29 69.6911V9.41812Z" fill="#E5E5E5"/>
<path d="M1156.29 19.4181L1142.79 9.41812L1142.98 69.6819L1156.29 59.9181V19.4181Z" fill="#B7B7B7"/>
<rect x="724.128" y="29.8765" width="52.1996" height="19.2469" fill="#363636" fill-opacity="0.33" stroke="#EF2E37"/>
<rect x="96.1634" y="29.8765" width="52.1996" height="19.2469" fill="#363636" fill-opacity="0.33" stroke="#EF2E37"/>
<rect x="514.785" y="29.8765" width="52.1996" height="19.2469" fill="#363636" fill-opacity="0.33" stroke="#EF2E37"/>
<rect x="933.406" y="29.8765" width="52.1996" height="19.2469" fill="#363636" fill-opacity="0.33" stroke="#EF2E37"/>
<rect x="305.441" y="29.8765" width="52.1996" height="19.2469" fill="#363636" fill-opacity="0.33" stroke="#EF2E37"/>
<rect x="828.492" y="29.8765" width="52.1996" height="19.2469" fill="#363636" fill-opacity="0.33" stroke="#EF2E37"/>
<rect x="200.527" y="29.8765" width="52.1996" height="19.2469" fill="#363636" fill-opacity="0.33" stroke="#EF2E37"/>
<rect x="619.148" y="29.8765" width="52.1996" height="19.2469" fill="#363636" fill-opacity="0.33" stroke="#EF2E37"/>
<rect x="-8.81622" y="29.8765" width="52.1996" height="19.2469" fill="#363636" fill-opacity="0.33" stroke="#EF2E37"/>
<rect x="1037.77" y="29.8765" width="52.1996" height="19.2469" fill="#363636" fill-opacity="0.33" stroke="#EF2E37"/>
<rect x="409.805" y="29.8765" width="52.1996" height="19.2469" fill="#363636" fill-opacity="0.33" stroke="#EF2E37"/>
<rect x="776.294" y="29.8765" width="52.1996" height="19.2469" fill="#363636" fill-opacity="0.33" stroke="#EF2E37"/>
<rect x="148.33" y="29.8765" width="52.1996" height="19.2469" fill="#363636" fill-opacity="0.33" stroke="#EF2E37"/>
<rect x="566.951" y="29.8765" width="52.1996" height="19.2469" fill="#363636" fill-opacity="0.33" stroke="#EF2E37"/>
<rect x="985.572" y="29.8765" width="52.1996" height="19.2469" fill="#363636" fill-opacity="0.33" stroke="#EF2E37"/>
<rect x="357.607" y="29.8765" width="52.1996" height="19.2469" fill="#363636" fill-opacity="0.33" stroke="#EF2E37"/>
<rect x="880.816" y="29.8765" width="52.1996" height="19.2469" fill="#363636" fill-opacity="0.33" stroke="#EF2E37"/>
<rect x="252.851" y="29.8765" width="52.1996" height="19.2469" fill="#363636" fill-opacity="0.33" stroke="#EF2E37"/>
<rect x="671.472" y="29.8765" width="52.1996" height="19.2469" fill="#363636" fill-opacity="0.33" stroke="#EF2E37"/>
<rect x="43.5074" y="29.8765" width="52.1996" height="19.2469" fill="#363636" fill-opacity="0.33" stroke="#EF2E37"/>
<rect x="1090.09" y="29.8765" width="52.1996" height="19.2469" fill="#363636" fill-opacity="0.33" stroke="#EF2E37"/>
<rect x="462.129" y="29.8765" width="52.1996" height="19.2469" fill="#363636" fill-opacity="0.33" stroke="#EF2E37"/>
<path d="M724.172 38.8934C729.734 39.2615 733.013 41.209 738.581 41.1185C742.332 41.0575 747.737 38.6972 751.479 38.4316C753.096 38.3168 754.709 38.0748 756.328 37.9888C759.42 37.8244 762.549 38.1811 765.639 38.3029C769.376 38.4502 773.05 39.1205 776.786 39.1205" stroke="#EF2E37" stroke-width="2"/>
<path d="M96.207 38.8934C101.769 39.2615 105.048 41.209 110.617 41.1185C114.367 41.0575 119.772 38.6972 123.514 38.4316C125.131 38.3168 126.744 38.0748 128.363 37.9888C131.456 37.8244 134.584 38.1811 137.674 38.3029C141.411 38.4502 145.085 39.1205 148.821 39.1205" stroke="#EF2E37" stroke-width="2"/>
<path d="M514.828 38.8934C520.391 39.2615 523.669 41.209 529.238 41.1185C532.988 41.0575 538.394 38.6972 542.136 38.4316C543.753 38.3168 545.366 38.0748 546.984 37.9888C550.077 37.8244 553.206 38.1811 556.296 38.3029C560.032 38.4502 563.706 39.1205 567.443 39.1205" stroke="#EF2E37" stroke-width="2"/>
<path d="M933.45 38.8934C939.012 39.2615 942.29 41.209 947.859 41.1185C951.609 41.0575 957.015 38.6972 960.757 38.4316C962.374 38.3168 963.987 38.0748 965.606 37.9888C968.698 37.8244 971.827 38.1811 974.917 38.3029C978.653 38.4502 982.328 39.1205 986.064 39.1205" stroke="#EF2E37" stroke-width="2"/>
<path d="M305.485 38.8934C311.047 39.2615 314.326 41.209 319.894 41.1185C323.645 41.0575 329.05 38.6972 332.792 38.4316C334.409 38.3168 336.022 38.0748 337.641 37.9888C340.733 37.8244 343.862 38.1811 346.952 38.3029C350.688 38.4502 354.363 39.1205 358.099 39.1205" stroke="#EF2E37" stroke-width="2"/>
<path d="M828.536 38.8934C834.098 39.2615 837.376 41.209 842.945 41.1185C846.695 41.0575 852.101 38.6972 855.843 38.4316C857.46 38.3168 859.073 38.0748 860.692 37.9888C863.784 37.8244 866.913 38.1811 870.003 38.3029C873.739 38.4502 877.414 39.1205 881.15 39.1205" stroke="#EF2E37" stroke-width="2"/>
<path d="M200.571 38.8934C206.133 39.2615 209.412 41.209 214.98 41.1185C218.731 41.0575 224.136 38.6972 227.878 38.4316C229.495 38.3168 231.108 38.0748 232.727 37.9888C235.819 37.8244 238.948 38.1811 242.038 38.3029C245.774 38.4502 249.449 39.1205 253.185 39.1205" stroke="#EF2E37" stroke-width="2"/>
<path d="M619.192 38.8934C624.754 39.2615 628.033 41.209 633.602 41.1185C637.352 41.0575 642.758 38.6972 646.499 38.4316C648.117 38.3168 649.729 38.0748 651.348 37.9888C654.441 37.8244 657.569 38.1811 660.659 38.3029C664.396 38.4502 668.07 39.1205 671.806 39.1205" stroke="#EF2E37" stroke-width="2"/>
<path d="M-8.77264 38.8934C-3.21024 39.2615 0.0681911 41.209 5.63691 41.1185C9.38724 41.0575 14.7929 38.6972 18.5348 38.4316C20.1518 38.3168 21.7647 38.0748 23.3834 37.9888C26.4759 37.8244 29.6048 38.1811 32.6947 38.3029C36.431 38.4502 40.1054 39.1205 43.8417 39.1205" stroke="#EF2E37" stroke-width="2"/>
<path d="M1037.81 38.8934C1043.38 39.2615 1046.65 41.209 1052.22 41.1185C1055.97 41.0575 1061.38 38.6972 1065.12 38.4316C1066.74 38.3168 1068.35 38.0748 1069.97 37.9888C1073.06 37.8244 1076.19 38.1811 1079.28 38.3029C1083.02 38.4502 1086.69 39.1205 1090.43 39.1205" stroke="#EF2E37" stroke-width="2"/>
<path d="M409.849 38.8934C415.411 39.2615 418.689 41.209 424.258 41.1185C428.008 41.0575 433.414 38.6972 437.156 38.4316C438.773 38.3168 440.386 38.0748 442.005 37.9888C445.097 37.8244 448.226 38.1811 451.316 38.3029C455.052 38.4502 458.727 39.1205 462.463 39.1205" stroke="#EF2E37" stroke-width="2"/>
<defs>
<filter id="filter0_d_38_84" x="1274.64" y="0.70841" width="58.0094" height="77.1667" filterUnits="userSpaceOnUse" color-interpolation-filters="sRGB">
<feFlood flood-opacity="0" result="BackgroundImageFix"/>
<feColorMatrix in="SourceAlpha" type="matrix" values="0 0 0 0 0 0 0 0 0 0 0 0 0 0 0 0 0 0 127 0" result="hardAlpha"/>
<feMorphology radius="10" operator="dilate" in="SourceAlpha" result="effect1_dropShadow_38_84"/>
<feOffset dx="3"/>
<feGaussianBlur stdDeviation="7.05"/>
<feComposite in2="hardAlpha" operator="out"/>
<feColorMatrix type="matrix" values="0 0 0 0 0.937255 0 0 0 0 0.180392 0 0 0 0 0.215686 0 0 0 0.33 0"/>
<feBlend mode="normal" in2="BackgroundImageFix" result="effect1_dropShadow_38_84"/>
<feBlend mode="normal" in="SourceGraphic" in2="effect1_dropShadow_38_84" result="shape"/>
</filter>
</defs>
</svg>
