<svg width="483" height="79" viewBox="0 0 483 79" fill="none" xmlns="http://www.w3.org/2000/svg">
<mask id="path-1-inside-1_13_31" fill="white">
<path fill-rule="evenodd" clip-rule="evenodd" d="M482.843 0H0.842773V79H482.843V0ZM69.9437 60.605H57.6767C57.0387 60.605 56.7197 60.286 56.7197 59.648V20.324C56.7197 19.744 57.0387 19.454 57.6767 19.454H69.9437C74.1197 19.454 76.2077 21.6 76.2077 25.892V54.167C76.2077 58.459 74.1197 60.605 69.9437 60.605ZM48.2807 13.538V66.521C48.2807 67.507 48.7737 68 49.7597 68H71.1617C75.3957 68 78.7017 66.811 81.0797 64.433C83.5157 62.055 84.7337 58.749 84.7337 54.515V25.544C84.7337 21.252 83.5157 17.946 81.0797 15.626C78.7017 13.248 75.3957 12.059 71.1617 12.059H49.7597C48.7737 12.059 48.2807 12.552 48.2807 13.538ZM117.94 60.605H110.371C106.196 60.605 104.107 58.459 104.107 54.167V25.892C104.107 21.6 106.196 19.454 110.371 19.454H117.94C122.174 19.454 124.292 21.6 124.292 25.892V54.167C124.292 58.459 122.174 60.605 117.94 60.605ZM109.154 68H119.245C123.537 68 126.873 66.811 129.251 64.433C131.628 62.055 132.818 58.749 132.818 54.515V25.544C132.818 21.252 131.628 17.946 129.251 15.626C126.873 13.248 123.537 12.059 119.245 12.059H109.154C104.862 12.059 101.527 13.248 99.1485 15.626C96.8285 17.946 95.6685 21.252 95.6685 25.544V54.515C95.6685 58.749 96.8285 62.055 99.1485 64.433C101.527 66.811 104.862 68 109.154 68ZM152.197 68H161.419C162.347 68 162.898 67.507 163.072 66.521L172.903 22.499H173.251L183.082 66.521C183.256 67.507 183.836 68 184.822 68H194.044C195.03 68 195.61 67.507 195.784 66.521L206.137 13.625C206.311 12.581 205.818 12.059 204.658 12.059H197.959C196.857 12.059 196.277 12.581 196.219 13.625L189.172 59.126H188.65L178.297 13.364C178.123 12.494 177.572 12.059 176.644 12.059H169.336C168.408 12.059 167.886 12.494 167.77 13.364L157.504 59.126H156.982L149.935 13.538C149.877 12.552 149.297 12.059 148.195 12.059H141.496C140.394 12.059 139.901 12.552 140.017 13.538L150.37 66.521C150.544 67.507 151.153 68 152.197 68ZM215.773 68H221.167C222.153 68 222.646 67.507 222.646 66.521V29.198H222.994L243.874 66.608C244.454 67.536 245.208 68 246.136 68H250.834C251.82 68 252.313 67.507 252.313 66.521V13.538C252.313 12.552 251.82 12.059 250.834 12.059H245.44C244.454 12.059 243.961 12.552 243.961 13.538V50.861H243.613L222.559 13.016C222.211 12.378 221.573 12.059 220.645 12.059H215.773C214.787 12.059 214.294 12.552 214.294 13.538V66.521C214.294 67.507 214.787 68 215.773 68ZM266.495 68H294.683C295.669 68 296.162 67.507 296.162 66.521V61.997C296.162 60.953 295.669 60.431 294.683 60.431H274.499C273.803 60.431 273.455 60.141 273.455 59.561V13.538C273.455 12.552 272.962 12.059 271.976 12.059H266.495C265.509 12.059 265.016 12.552 265.016 13.538V66.521C265.016 67.507 265.509 68 266.495 68ZM325.585 60.605H318.016C313.84 60.605 311.752 58.459 311.752 54.167V25.892C311.752 21.6 313.84 19.454 318.016 19.454H325.585C329.819 19.454 331.936 21.6 331.936 25.892V54.167C331.936 58.459 329.819 60.605 325.585 60.605ZM316.798 68H326.89C331.182 68 334.517 66.811 336.895 64.433C339.273 62.055 340.462 58.749 340.462 54.515V25.544C340.462 21.252 339.273 17.946 336.895 15.626C334.517 13.248 331.182 12.059 326.89 12.059H316.798C312.506 12.059 309.171 13.248 306.793 15.626C304.473 17.946 303.313 21.252 303.313 25.544V54.515C303.313 58.749 304.473 62.055 306.793 64.433C309.171 66.811 312.506 68 316.798 68ZM348.967 68H355.231C356.043 68 356.565 67.507 356.797 66.521L360.103 55.211H379.243L382.549 66.521C382.665 67.101 382.81 67.507 382.984 67.739C383.216 67.913 383.593 68 384.115 68H390.292C391.162 68 391.481 67.507 391.249 66.521L376.111 13.538C375.879 12.552 375.183 12.059 374.023 12.059H365.323C364.221 12.059 363.525 12.552 363.235 13.538L348.097 66.521C347.865 67.507 348.155 68 348.967 68ZM361.843 48.251L369.499 20.411H369.847L377.59 48.251H361.843ZM421.512 60.605H409.245C408.607 60.605 408.288 60.286 408.288 59.648V20.324C408.288 19.744 408.607 19.454 409.245 19.454H421.512C425.688 19.454 427.776 21.6 427.776 25.892V54.167C427.776 58.459 425.688 60.605 421.512 60.605ZM399.849 13.538V66.521C399.849 67.507 400.342 68 401.328 68H422.73C426.964 68 430.27 66.811 432.648 64.433C435.084 62.055 436.302 58.749 436.302 54.515V25.544C436.302 21.252 435.084 17.946 432.648 15.626C430.27 13.248 426.964 12.059 422.73 12.059H401.328C400.342 12.059 399.849 12.552 399.849 13.538Z"/>
</mask>
<path fill-rule="evenodd" clip-rule="evenodd" d="M482.843 0H0.842773V79H482.843V0ZM69.9437 60.605H57.6767C57.0387 60.605 56.7197 60.286 56.7197 59.648V20.324C56.7197 19.744 57.0387 19.454 57.6767 19.454H69.9437C74.1197 19.454 76.2077 21.6 76.2077 25.892V54.167C76.2077 58.459 74.1197 60.605 69.9437 60.605ZM48.2807 13.538V66.521C48.2807 67.507 48.7737 68 49.7597 68H71.1617C75.3957 68 78.7017 66.811 81.0797 64.433C83.5157 62.055 84.7337 58.749 84.7337 54.515V25.544C84.7337 21.252 83.5157 17.946 81.0797 15.626C78.7017 13.248 75.3957 12.059 71.1617 12.059H49.7597C48.7737 12.059 48.2807 12.552 48.2807 13.538ZM117.94 60.605H110.371C106.196 60.605 104.107 58.459 104.107 54.167V25.892C104.107 21.6 106.196 19.454 110.371 19.454H117.94C122.174 19.454 124.292 21.6 124.292 25.892V54.167C124.292 58.459 122.174 60.605 117.94 60.605ZM109.154 68H119.245C123.537 68 126.873 66.811 129.251 64.433C131.628 62.055 132.818 58.749 132.818 54.515V25.544C132.818 21.252 131.628 17.946 129.251 15.626C126.873 13.248 123.537 12.059 119.245 12.059H109.154C104.862 12.059 101.527 13.248 99.1485 15.626C96.8285 17.946 95.6685 21.252 95.6685 25.544V54.515C95.6685 58.749 96.8285 62.055 99.1485 64.433C101.527 66.811 104.862 68 109.154 68ZM152.197 68H161.419C162.347 68 162.898 67.507 163.072 66.521L172.903 22.499H173.251L183.082 66.521C183.256 67.507 183.836 68 184.822 68H194.044C195.03 68 195.61 67.507 195.784 66.521L206.137 13.625C206.311 12.581 205.818 12.059 204.658 12.059H197.959C196.857 12.059 196.277 12.581 196.219 13.625L189.172 59.126H188.65L178.297 13.364C178.123 12.494 177.572 12.059 176.644 12.059H169.336C168.408 12.059 167.886 12.494 167.77 13.364L157.504 59.126H156.982L149.935 13.538C149.877 12.552 149.297 12.059 148.195 12.059H141.496C140.394 12.059 139.901 12.552 140.017 13.538L150.37 66.521C150.544 67.507 151.153 68 152.197 68ZM215.773 68H221.167C222.153 68 222.646 67.507 222.646 66.521V29.198H222.994L243.874 66.608C244.454 67.536 245.208 68 246.136 68H250.834C251.82 68 252.313 67.507 252.313 66.521V13.538C252.313 12.552 251.82 12.059 250.834 12.059H245.44C244.454 12.059 243.961 12.552 243.961 13.538V50.861H243.613L222.559 13.016C222.211 12.378 221.573 12.059 220.645 12.059H215.773C214.787 12.059 214.294 12.552 214.294 13.538V66.521C214.294 67.507 214.787 68 215.773 68ZM266.495 68H294.683C295.669 68 296.162 67.507 296.162 66.521V61.997C296.162 60.953 295.669 60.431 294.683 60.431H274.499C273.803 60.431 273.455 60.141 273.455 59.561V13.538C273.455 12.552 272.962 12.059 271.976 12.059H266.495C265.509 12.059 265.016 12.552 265.016 13.538V66.521C265.016 67.507 265.509 68 266.495 68ZM325.585 60.605H318.016C313.84 60.605 311.752 58.459 311.752 54.167V25.892C311.752 21.6 313.84 19.454 318.016 19.454H325.585C329.819 19.454 331.936 21.6 331.936 25.892V54.167C331.936 58.459 329.819 60.605 325.585 60.605ZM316.798 68H326.89C331.182 68 334.517 66.811 336.895 64.433C339.273 62.055 340.462 58.749 340.462 54.515V25.544C340.462 21.252 339.273 17.946 336.895 15.626C334.517 13.248 331.182 12.059 326.89 12.059H316.798C312.506 12.059 309.171 13.248 306.793 15.626C304.473 17.946 303.313 21.252 303.313 25.544V54.515C303.313 58.749 304.473 62.055 306.793 64.433C309.171 66.811 312.506 68 316.798 68ZM348.967 68H355.231C356.043 68 356.565 67.507 356.797 66.521L360.103 55.211H379.243L382.549 66.521C382.665 67.101 382.81 67.507 382.984 67.739C383.216 67.913 383.593 68 384.115 68H390.292C391.162 68 391.481 67.507 391.249 66.521L376.111 13.538C375.879 12.552 375.183 12.059 374.023 12.059H365.323C364.221 12.059 363.525 12.552 363.235 13.538L348.097 66.521C347.865 67.507 348.155 68 348.967 68ZM361.843 48.251L369.499 20.411H369.847L377.59 48.251H361.843ZM421.512 60.605H409.245C408.607 60.605 408.288 60.286 408.288 59.648V20.324C408.288 19.744 408.607 19.454 409.245 19.454H421.512C425.688 19.454 427.776 21.6 427.776 25.892V54.167C427.776 58.459 425.688 60.605 421.512 60.605ZM399.849 13.538V66.521C399.849 67.507 400.342 68 401.328 68H422.73C426.964 68 430.27 66.811 432.648 64.433C435.084 62.055 436.302 58.749 436.302 54.515V25.544C436.302 21.252 435.084 17.946 432.648 15.626C430.27 13.248 426.964 12.059 422.73 12.059H401.328C400.342 12.059 399.849 12.552 399.849 13.538Z" fill="#EF2E37"/>
<path d="M0.842773 0V-2H-1.15723V0H0.842773ZM482.843 0H484.843V-2H482.843V0ZM0.842773 79H-1.15723V81H0.842773V79ZM482.843 79V81H484.843V79H482.843ZM81.0797 64.433L79.6826 63.0019L79.674 63.0103L79.6655 63.0188L81.0797 64.433ZM81.0797 15.626L79.6655 17.0402L79.6827 17.0575L79.7004 17.0743L81.0797 15.626ZM129.251 64.433L130.665 65.8472L129.251 64.433ZM129.251 15.626L127.836 17.0402L127.845 17.0489L127.854 17.0576L129.251 15.626ZM99.1485 15.626L97.7343 14.2118L97.7343 14.2118L99.1485 15.626ZM99.1485 64.433L97.7169 65.8296L97.7256 65.8385L97.7343 65.8472L99.1485 64.433ZM163.072 66.521L161.121 66.0851L161.111 66.1291L161.103 66.1734L163.072 66.521ZM172.903 22.499V20.499H171.301L170.952 22.0631L172.903 22.499ZM173.251 22.499L175.203 22.0631L174.854 20.499H173.251V22.499ZM183.082 66.521L185.052 66.1734L185.044 66.1291L185.034 66.0851L183.082 66.521ZM195.784 66.521L193.822 66.1368L193.818 66.1551L193.815 66.1734L195.784 66.521ZM206.137 13.625L208.1 14.0092L208.106 13.9815L208.11 13.9538L206.137 13.625ZM196.219 13.625L198.196 13.9311L198.211 13.834L198.216 13.7359L196.219 13.625ZM189.172 59.126V61.126H190.887L191.149 59.4321L189.172 59.126ZM188.65 59.126L186.7 59.5673L187.052 61.126H188.65V59.126ZM178.297 13.364L176.336 13.7562L176.341 13.7808L176.347 13.8053L178.297 13.364ZM167.77 13.364L169.722 13.8018L169.741 13.7157L169.753 13.6283L167.77 13.364ZM157.504 59.126V61.126H159.105L159.456 59.5638L157.504 59.126ZM156.982 59.126L155.006 59.4315L155.268 61.126H156.982V59.126ZM149.935 13.538L147.939 13.6554L147.944 13.75L147.959 13.8435L149.935 13.538ZM140.017 13.538L138.031 13.7717L138.04 13.8471L138.055 13.9215L140.017 13.538ZM150.37 66.521L152.34 66.1734L152.337 66.1554L152.333 66.1375L150.37 66.521ZM222.646 29.198V27.198H220.646V29.198H222.646ZM222.994 29.198L224.741 28.2233L224.169 27.198H222.994V29.198ZM243.874 66.608L242.128 67.5827L242.152 67.626L242.178 67.668L243.874 66.608ZM243.961 50.861V52.861H245.961V50.861H243.961ZM243.613 50.861L241.866 51.8333L242.437 52.861H243.613V50.861ZM222.559 13.016L220.804 13.9737L220.808 13.981L220.812 13.9883L222.559 13.016ZM336.895 64.433L335.481 63.0188V63.0188L336.895 64.433ZM336.895 15.626L335.481 17.0402L335.49 17.0489L335.498 17.0576L336.895 15.626ZM306.793 15.626L308.207 17.0402V17.0402L306.793 15.626ZM306.793 64.433L305.361 65.8297L305.37 65.8385L305.379 65.8472L306.793 64.433ZM356.797 66.521L354.877 65.9599L354.862 66.011L354.85 66.0629L356.797 66.521ZM360.103 55.211V53.211H358.604L358.183 54.6499L360.103 55.211ZM379.243 55.211L381.163 54.6499L380.742 53.211H379.243V55.211ZM382.549 66.521L384.51 66.1287L384.493 66.0434L384.469 65.9599L382.549 66.521ZM382.984 67.739L381.384 68.9389L381.555 69.1676L381.784 69.3391L382.984 67.739ZM391.249 66.521L393.196 66.0629L393.185 66.017L393.172 65.9716L391.249 66.521ZM376.111 13.538L374.164 13.9961L374.175 14.042L374.188 14.0874L376.111 13.538ZM363.235 13.538L361.316 12.9736L361.314 12.9811L361.312 12.9886L363.235 13.538ZM348.097 66.521L346.174 65.9716L346.161 66.017L346.15 66.0629L348.097 66.521ZM369.499 20.411V18.411H367.975L367.571 19.8807L369.499 20.411ZM361.843 48.251L359.915 47.7207L359.219 50.251H361.843V48.251ZM369.847 20.411L371.774 19.8751L371.367 18.411H369.847V20.411ZM377.59 48.251V50.251H380.222L379.517 47.7151L377.59 48.251ZM432.648 64.433L431.251 63.0019L431.242 63.0103L431.234 63.0188L432.648 64.433ZM432.648 15.626L431.234 17.0402L431.251 17.0575L431.269 17.0743L432.648 15.626ZM0.842773 2H482.843V-2H0.842773V2ZM2.84277 79V0H-1.15723V79H2.84277ZM482.843 77H0.842773V81H482.843V77ZM480.843 0V79H484.843V0H480.843ZM57.6767 62.605H69.9437V58.605H57.6767V62.605ZM54.7197 59.648C54.7197 60.2753 54.8779 61.1131 55.5447 61.78C56.2116 62.4468 57.0494 62.605 57.6767 62.605V58.605C57.6779 58.605 57.7604 58.6045 57.8905 58.6478C58.0302 58.6944 58.2086 58.787 58.3732 58.9515C58.5377 59.1161 58.6303 59.2944 58.6769 59.4342C58.7202 59.5643 58.7197 59.6468 58.7197 59.648H54.7197ZM54.7197 20.324V59.648H58.7197V20.324H54.7197ZM57.6767 17.454C57.0941 17.454 56.2838 17.5823 55.6136 18.1916C54.9072 18.8338 54.7197 19.674 54.7197 20.324H58.7197C58.7197 20.394 58.6917 20.7992 58.3043 21.1514C57.9531 21.4707 57.6213 21.454 57.6767 21.454V17.454ZM69.9437 17.454H57.6767V21.454H69.9437V17.454ZM78.2077 25.892C78.2077 23.4512 77.6144 21.2508 76.0751 19.6688C74.526 18.0766 72.3541 17.454 69.9437 17.454V21.454C71.7093 21.454 72.6694 21.9044 73.2082 22.4582C73.757 23.0222 74.2077 24.0408 74.2077 25.892H78.2077ZM78.2077 54.167V25.892H74.2077V54.167H78.2077ZM69.9437 62.605C72.3541 62.605 74.526 61.9824 76.0751 60.3902C77.6144 58.8082 78.2077 56.6078 78.2077 54.167H74.2077C74.2077 56.0182 73.757 57.0368 73.2082 57.6008C72.6694 58.1546 71.7093 58.605 69.9437 58.605V62.605ZM50.2807 66.521V13.538H46.2807V66.521H50.2807ZM49.7597 66C49.575 66 49.8038 65.9552 50.0647 66.216C50.3255 66.4769 50.2807 66.7057 50.2807 66.521H46.2807C46.2807 67.3223 46.4824 68.2906 47.2362 69.0445C47.9901 69.7983 48.9584 70 49.7597 70V66ZM71.1617 66H49.7597V70H71.1617V66ZM79.6655 63.0188C77.7538 64.9304 75.01 66 71.1617 66V70C75.7814 70 79.6496 68.6916 82.4939 65.8472L79.6655 63.0188ZM82.7337 54.515C82.7337 58.3497 81.6435 61.0876 79.6826 63.0019L82.4768 65.8641C85.3878 63.0224 86.7337 59.1483 86.7337 54.515H82.7337ZM82.7337 25.544V54.515H86.7337V25.544H82.7337ZM79.7004 17.0743C81.6376 18.9193 82.7337 21.6397 82.7337 25.544H86.7337C86.7337 20.8643 85.3937 16.9727 82.459 14.1777L79.7004 17.0743ZM71.1617 14.059C75.01 14.059 77.7538 15.1286 79.6655 17.0402L82.4939 14.2118C79.6496 11.3674 75.7814 10.059 71.1617 10.059V14.059ZM49.7597 14.059H71.1617V10.059H49.7597V14.059ZM50.2807 13.538C50.2807 13.3533 50.3255 13.5821 50.0647 13.843C49.8038 14.1038 49.575 14.059 49.7597 14.059V10.059C48.9584 10.059 47.9901 10.2607 47.2362 11.0145C46.4824 11.7684 46.2807 12.7367 46.2807 13.538H50.2807ZM110.371 62.605H117.94V58.605H110.371V62.605ZM102.107 54.167C102.107 56.6078 102.701 58.8082 104.24 60.3902C105.789 61.9824 107.961 62.605 110.371 62.605V58.605C108.606 58.605 107.646 58.1546 107.107 57.6008C106.558 57.0368 106.107 56.0182 106.107 54.167H102.107ZM102.107 25.892V54.167H106.107V25.892H102.107ZM110.371 17.454C107.961 17.454 105.789 18.0766 104.24 19.6688C102.701 21.2508 102.107 23.4512 102.107 25.892H106.107C106.107 24.0408 106.558 23.0222 107.107 22.4582C107.646 21.9044 108.606 21.454 110.371 21.454V17.454ZM117.94 17.454H110.371V21.454H117.94V17.454ZM126.292 25.892C126.292 23.4445 125.687 21.2402 124.128 19.6589C122.563 18.0727 120.373 17.454 117.94 17.454V21.454C119.742 21.454 120.728 21.9083 121.28 22.4681C121.837 23.0328 122.292 24.0475 122.292 25.892H126.292ZM126.292 54.167V25.892H122.292V54.167H126.292ZM117.94 62.605C120.373 62.605 122.563 61.9863 124.128 60.4001C125.687 58.8188 126.292 56.6145 126.292 54.167H122.292C122.292 56.0115 121.837 57.0262 121.28 57.5909C120.728 58.1507 119.742 58.605 117.94 58.605V62.605ZM119.245 66H109.154V70H119.245V66ZM127.836 63.0188C125.93 64.9255 123.161 66 119.245 66V70C123.914 70 127.815 68.6965 130.665 65.8472L127.836 63.0188ZM130.818 54.515C130.818 58.3633 129.748 61.1071 127.836 63.0188L130.665 65.8472C133.509 63.0029 134.818 59.1347 134.818 54.515H130.818ZM130.818 25.544V54.515H134.818V25.544H130.818ZM127.854 17.0576C129.742 18.8997 130.818 21.626 130.818 25.544H134.818C134.818 20.878 133.515 16.9922 130.647 14.1944L127.854 17.0576ZM119.245 14.059C123.161 14.059 125.93 15.1335 127.836 17.0402L130.665 14.2118C127.815 11.3625 123.914 10.059 119.245 10.059V14.059ZM109.154 14.059H119.245V10.059H109.154V14.059ZM100.563 17.0402C102.469 15.1335 105.238 14.059 109.154 14.059V10.059C104.485 10.059 100.584 11.3625 97.7343 14.2118L100.563 17.0402ZM97.6685 25.544C97.6685 21.6124 98.723 18.88 100.563 17.0402L97.7343 14.2118C94.934 17.012 93.6685 20.8916 93.6685 25.544H97.6685ZM97.6685 54.515V25.544H93.6685V54.515H97.6685ZM100.58 63.0364C98.7172 61.1269 97.6685 58.3769 97.6685 54.515H93.6685C93.6685 59.1211 94.9398 62.9831 97.7169 65.8296L100.58 63.0364ZM109.154 66C105.238 66 102.469 64.9255 100.563 63.0188L97.7343 65.8472C100.584 68.6965 104.485 70 109.154 70V66ZM161.419 66H152.197V70H161.419V66ZM161.103 66.1734C161.066 66.3803 161.035 66.2827 161.195 66.1398C161.272 66.0711 161.352 66.0301 161.412 66.0102C161.466 65.9923 161.476 66 161.419 66V70C162.245 70 163.133 69.7729 163.862 69.1207C164.573 68.4849 164.905 67.6477 165.042 66.8686L161.103 66.1734ZM170.952 22.0631L161.121 66.0851L165.024 66.9569L174.855 22.9349L170.952 22.0631ZM173.251 20.499H172.903V24.499H173.251V20.499ZM185.034 66.0851L175.203 22.0631L171.3 22.9349L181.131 66.9569L185.034 66.0851ZM184.822 66C184.74 66 184.727 65.9895 184.76 65.9999C184.799 66.0121 184.869 66.0434 184.943 66.1064C185.017 66.1691 185.056 66.2307 185.071 66.2597C185.083 66.2834 185.068 66.2635 185.052 66.1734L181.113 66.8686C181.255 67.6741 181.609 68.5222 182.353 69.1541C183.1 69.7893 183.998 70 184.822 70V66ZM194.044 66H184.822V70H194.044V66ZM193.815 66.1734C193.799 66.2635 193.784 66.2834 193.796 66.2597C193.811 66.2307 193.85 66.1691 193.924 66.1064C193.998 66.0434 194.068 66.0121 194.107 65.9999C194.14 65.9895 194.127 66 194.044 66V70C194.869 70 195.767 69.7893 196.514 69.1541C197.258 68.5222 197.612 67.6741 197.754 66.8686L193.815 66.1734ZM204.175 13.2408L193.822 66.1368L197.747 66.9052L208.1 14.0092L204.175 13.2408ZM204.658 14.059C204.809 14.059 204.843 14.0771 204.801 14.064C204.75 14.0479 204.599 13.9873 204.444 13.8237C204.283 13.6532 204.209 13.4663 204.183 13.3391C204.161 13.2311 204.18 13.2027 204.165 13.2962L208.11 13.9538C208.249 13.1194 208.204 11.9787 207.352 11.0773C206.55 10.2281 205.461 10.059 204.658 10.059V14.059ZM197.959 14.059H204.658V10.059H197.959V14.059ZM198.216 13.7359C198.221 13.6457 198.234 13.6432 198.213 13.6945C198.188 13.7546 198.134 13.849 198.036 13.9371C197.832 14.121 197.7 14.059 197.959 14.059V10.059C197.117 10.059 196.144 10.258 195.36 10.9639C194.558 11.6855 194.271 12.6493 194.223 13.5141L198.216 13.7359ZM191.149 59.4321L198.196 13.9311L194.243 13.3189L187.196 58.8199L191.149 59.4321ZM188.65 61.126H189.172V57.126H188.65V61.126ZM176.347 13.8053L186.7 59.5673L190.601 58.6847L180.248 12.9227L176.347 13.8053ZM176.644 14.059C176.804 14.059 176.691 14.0944 176.514 13.955C176.432 13.8897 176.377 13.8176 176.348 13.7643C176.321 13.7162 176.326 13.7045 176.336 13.7562L180.259 12.9718C180.104 12.1973 179.731 11.3984 178.993 10.8155C178.265 10.2411 177.413 10.059 176.644 10.059V14.059ZM169.336 14.059H176.644V10.059H169.336V14.059ZM169.753 13.6283C169.759 13.5812 169.762 13.6058 169.73 13.6715C169.695 13.7439 169.63 13.8377 169.529 13.9217C169.319 14.0973 169.17 14.059 169.336 14.059V10.059C168.575 10.059 167.701 10.2382 166.969 10.8488C166.22 11.4724 165.892 12.3172 165.788 13.0997L169.753 13.6283ZM159.456 59.5638L169.722 13.8018L165.819 12.9262L155.553 58.6882L159.456 59.5638ZM156.982 61.126H157.504V57.126H156.982V61.126ZM147.959 13.8435L155.006 59.4315L158.959 58.8205L151.912 13.2325L147.959 13.8435ZM148.195 14.059C148.48 14.059 148.365 14.1256 148.162 13.9526C148.059 13.8653 147.992 13.7637 147.958 13.6831C147.927 13.6119 147.935 13.5906 147.939 13.6554L151.932 13.4206C151.881 12.553 151.572 11.6019 150.752 10.9049C149.969 10.2389 149.013 10.059 148.195 10.059V14.059ZM141.496 14.059H148.195V10.059H141.496V14.059ZM142.004 13.3043C141.995 13.2317 142.011 13.2727 141.983 13.3849C141.95 13.5143 141.869 13.6884 141.714 13.843C141.566 13.991 141.425 14.0466 141.375 14.0622C141.333 14.0752 141.361 14.059 141.496 14.059V10.059C140.713 10.059 139.676 10.2248 138.886 11.0145C138.045 11.8554 137.933 12.941 138.031 13.7717L142.004 13.3043ZM152.333 66.1375L141.98 13.1544L138.055 13.9215L148.408 66.9046L152.333 66.1375ZM152.197 66C152.091 66 152.055 65.9871 152.068 65.991C152.086 65.9965 152.146 66.0188 152.216 66.0758C152.288 66.1336 152.33 66.1951 152.35 66.2323C152.367 66.2638 152.354 66.2536 152.34 66.1734L148.401 66.8686C148.548 67.701 148.925 68.5582 149.699 69.1847C150.463 69.8028 151.37 70 152.197 70V66ZM221.167 66H215.773V70H221.167V66ZM220.646 66.521C220.646 66.7057 220.602 66.4769 220.862 66.216C221.123 65.9552 221.352 66 221.167 66V70C221.969 70 222.937 69.7983 223.691 69.0445C224.445 68.2906 224.646 67.3223 224.646 66.521H220.646ZM220.646 29.198V66.521H224.646V29.198H220.646ZM222.994 27.198H222.646V31.198H222.994V27.198ZM245.621 65.6333L224.741 28.2233L221.248 30.1727L242.128 67.5827L245.621 65.6333ZM246.136 66C246.031 66 245.861 66.0138 245.57 65.548L242.178 67.668C243.047 69.0582 244.386 70 246.136 70V66ZM250.834 66H246.136V70H250.834V66ZM250.313 66.521C250.313 66.7057 250.269 66.4769 250.529 66.216C250.79 65.9552 251.019 66 250.834 66V70C251.636 70 252.604 69.7983 253.358 69.0445C254.112 68.2906 254.313 67.3223 254.313 66.521H250.313ZM250.313 13.538V66.521H254.313V13.538H250.313ZM250.834 14.059C251.019 14.059 250.79 14.1038 250.529 13.843C250.269 13.5821 250.313 13.3533 250.313 13.538H254.313C254.313 12.7367 254.112 11.7684 253.358 11.0145C252.604 10.2607 251.636 10.059 250.834 10.059V14.059ZM245.44 14.059H250.834V10.059H245.44V14.059ZM245.961 13.538C245.961 13.3533 246.006 13.5821 245.745 13.843C245.484 14.1038 245.256 14.059 245.44 14.059V10.059C244.639 10.059 243.671 10.2607 242.917 11.0145C242.163 11.7684 241.961 12.7367 241.961 13.538H245.961ZM245.961 50.861V13.538H241.961V50.861H245.961ZM243.613 52.861H243.961V48.861H243.613V52.861ZM220.812 13.9883L241.866 51.8333L245.361 49.8887L224.307 12.0437L220.812 13.9883ZM220.645 14.059C220.889 14.059 220.955 14.1018 220.925 14.0871C220.909 14.0787 220.88 14.061 220.851 14.0325C220.822 14.0042 220.807 13.9804 220.804 13.9737L224.315 12.0583C223.516 10.5936 222.068 10.059 220.645 10.059V14.059ZM215.773 14.059H220.645V10.059H215.773V14.059ZM216.294 13.538C216.294 13.3533 216.339 13.5821 216.078 13.843C215.817 14.1038 215.589 14.059 215.773 14.059V10.059C214.972 10.059 214.004 10.2607 213.25 11.0145C212.496 11.7684 212.294 12.7367 212.294 13.538H216.294ZM216.294 66.521V13.538H212.294V66.521H216.294ZM215.773 66C215.589 66 215.817 65.9552 216.078 66.216C216.339 66.4769 216.294 66.7057 216.294 66.521H212.294C212.294 67.3223 212.496 68.2906 213.25 69.0445C214.004 69.7983 214.972 70 215.773 70V66ZM294.683 66H266.495V70H294.683V66ZM294.162 66.521C294.162 66.7057 294.117 66.4769 294.378 66.216C294.639 65.9552 294.868 66 294.683 66V70C295.484 70 296.453 69.7983 297.207 69.0445C297.96 68.2906 298.162 67.3223 298.162 66.521H294.162ZM294.162 61.997V66.521H298.162V61.997H294.162ZM294.683 62.431C294.759 62.431 294.74 62.4416 294.664 62.4149C294.578 62.3842 294.453 62.3172 294.338 62.1958C294.103 61.9466 294.162 61.7557 294.162 61.997H298.162C298.162 61.1943 297.975 60.2204 297.246 59.4492C296.498 58.6566 295.514 58.431 294.683 58.431V62.431ZM274.499 62.431H294.683V58.431H274.499V62.431ZM271.455 59.561C271.455 60.2649 271.684 61.1232 272.436 61.7499C273.118 62.3185 273.923 62.431 274.499 62.431V58.431C274.38 58.431 274.662 58.3985 274.996 58.6771C275.173 58.8246 275.302 59.0103 275.377 59.1988C275.448 59.3752 275.455 59.5101 275.455 59.561H271.455ZM271.455 13.538V59.561H275.455V13.538H271.455ZM271.976 14.059C272.161 14.059 271.932 14.1038 271.671 13.843C271.41 13.5821 271.455 13.3533 271.455 13.538H275.455C275.455 12.7367 275.253 11.7684 274.5 11.0145C273.746 10.2607 272.777 10.059 271.976 10.059V14.059ZM266.495 14.059H271.976V10.059H266.495V14.059ZM267.016 13.538C267.016 13.3533 267.061 13.5821 266.8 13.8429C266.539 14.1038 266.31 14.059 266.495 14.059V10.059C265.694 10.059 264.725 10.2607 263.972 11.0146C263.218 11.7684 263.016 12.7367 263.016 13.538H267.016ZM267.016 66.521V13.538H263.016V66.521H267.016ZM266.495 66C266.31 66 266.539 65.9552 266.8 66.216C267.061 66.4769 267.016 66.7057 267.016 66.521H263.016C263.016 67.3223 263.218 68.2906 263.972 69.0444C264.725 69.7983 265.694 70 266.495 70V66ZM318.016 62.605H325.585V58.605H318.016V62.605ZM309.752 54.167C309.752 56.6077 310.345 58.8082 311.885 60.3902C313.434 61.9824 315.606 62.605 318.016 62.605V58.605C316.25 58.605 315.29 58.1546 314.751 57.6008C314.203 57.0368 313.752 56.0182 313.752 54.167H309.752ZM309.752 25.892V54.167H313.752V25.892H309.752ZM318.016 17.454C315.606 17.454 313.434 18.0766 311.885 19.6688C310.345 21.2508 309.752 23.4512 309.752 25.892H313.752C313.752 24.0407 314.203 23.0222 314.751 22.4582C315.29 21.9044 316.25 21.454 318.016 21.454V17.454ZM325.585 17.454H318.016V21.454H325.585V17.454ZM333.936 25.892C333.936 23.4445 333.332 21.2402 331.772 19.6589C330.207 18.0727 328.017 17.454 325.585 17.454V21.454C327.387 21.454 328.372 21.9083 328.924 22.4681C329.482 23.0328 329.936 24.0475 329.936 25.892H333.936ZM333.936 54.167V25.892H329.936V54.167H333.936ZM325.585 62.605C328.017 62.605 330.207 61.9863 331.772 60.4001C333.332 58.8188 333.936 56.6145 333.936 54.167H329.936C329.936 56.0115 329.482 57.0262 328.924 57.5909C328.372 58.1507 327.387 58.605 325.585 58.605V62.605ZM326.89 66H316.798V70H326.89V66ZM335.481 63.0188C333.574 64.9255 330.805 66 326.89 66V70C331.559 70 335.46 68.6965 338.309 65.8472L335.481 63.0188ZM338.462 54.515C338.462 58.3633 337.392 61.1071 335.481 63.0188L338.309 65.8472C341.154 63.0029 342.462 59.1347 342.462 54.515H338.462ZM338.462 25.544V54.515H342.462V25.544H338.462ZM335.498 17.0576C337.387 18.8997 338.462 21.626 338.462 25.544H342.462C342.462 20.878 341.159 16.9922 338.292 14.1944L335.498 17.0576ZM326.89 14.059C330.805 14.059 333.574 15.1335 335.481 17.0402L338.309 14.2118C335.46 11.3625 331.559 10.059 326.89 10.059V14.059ZM316.798 14.059H326.89V10.059H316.798V14.059ZM308.207 17.0402C310.114 15.1335 312.883 14.059 316.798 14.059V10.059C312.129 10.059 308.228 11.3625 305.379 14.2118L308.207 17.0402ZM305.313 25.544C305.313 21.6124 306.367 18.88 308.207 17.0402L305.379 14.2118C302.579 17.012 301.313 20.8916 301.313 25.544H305.313ZM305.313 54.515V25.544H301.313V54.515H305.313ZM308.225 63.0363C306.362 61.1269 305.313 58.3769 305.313 54.515H301.313C301.313 59.1211 302.584 62.9831 305.361 65.8297L308.225 63.0363ZM316.798 66C312.883 66 310.114 64.9255 308.207 63.0188L305.379 65.8472C308.228 68.6965 312.129 70 316.798 70V66ZM355.231 66H348.967V70H355.231V66ZM354.85 66.0629C354.788 66.3251 354.74 66.2877 354.858 66.1762C354.922 66.1163 355.004 66.0643 355.092 66.0316C355.133 66.0164 355.168 66.0083 355.193 66.0041C355.218 66 355.231 66 355.231 66V70C356.075 70 356.923 69.7281 357.605 69.0843C358.245 68.4798 358.573 67.7029 358.744 66.9791L354.85 66.0629ZM358.183 54.6499L354.877 65.9599L358.717 67.0821L362.023 55.7721L358.183 54.6499ZM379.243 53.211H360.103V57.211H379.243V53.211ZM384.469 65.9599L381.163 54.6499L377.323 55.7721L380.629 67.0821L384.469 65.9599ZM384.584 66.5391C384.627 66.5959 384.646 66.6339 384.648 66.638C384.65 66.6432 384.643 66.6286 384.628 66.5878C384.598 66.5028 384.556 66.3558 384.51 66.1287L380.588 66.9133C380.714 67.5433 380.926 68.3277 381.384 68.9389L384.584 66.5391ZM384.115 66C384.039 66 383.983 65.9968 383.943 65.993C383.904 65.9891 383.887 65.9853 383.89 65.986C383.893 65.9866 383.924 65.9937 383.973 66.0149C384.023 66.0363 384.098 66.0745 384.184 66.1389L381.784 69.3391C382.545 69.9097 383.465 70 384.115 70V66ZM390.292 66H384.115V70H390.292V66ZM389.302 66.9791C389.331 67.1012 389.319 67.1152 389.323 67.0506C389.327 66.9792 389.354 66.7771 389.505 66.5437C389.666 66.294 389.887 66.1381 390.075 66.0601C390.239 65.9923 390.334 66 390.292 66V70C391.056 70 392.178 69.7745 392.863 68.7168C393.472 67.7756 393.352 66.7259 393.196 66.0629L389.302 66.9791ZM374.188 14.0874L389.326 67.0704L393.172 65.9716L378.034 12.9886L374.188 14.0874ZM374.023 14.059C374.174 14.059 374.259 14.0754 374.293 14.0844C374.323 14.0925 374.302 14.0916 374.259 14.0608C374.238 14.0461 374.217 14.0281 374.198 14.0075C374.178 13.9869 374.165 13.9681 374.156 13.9539C374.138 13.9253 374.149 13.9301 374.164 13.9961L378.058 13.0799C377.852 12.2061 377.389 11.3762 376.571 10.7967C375.783 10.2383 374.871 10.059 374.023 10.059V14.059ZM365.323 14.059H374.023V10.059H365.323V14.059ZM365.154 14.1023C365.178 14.0197 365.197 13.9935 365.193 14.0003C365.186 14.0106 365.165 14.0365 365.13 14.0608C365.097 14.0842 365.081 14.086 365.101 14.0802C365.126 14.0735 365.195 14.059 365.323 14.059V10.059C364.478 10.059 363.591 10.2494 362.818 10.7967C362.032 11.3534 361.561 12.1406 361.316 12.9736L365.154 14.1023ZM350.02 67.0704L365.158 14.0874L361.312 12.9886L346.174 65.9716L350.02 67.0704ZM348.967 66C348.953 66 349.081 65.9962 349.273 66.0819C349.492 66.1801 349.714 66.3608 349.864 66.6162C350.001 66.8488 350.017 67.0389 350.019 67.0897C350.021 67.1376 350.013 67.1096 350.044 66.9791L346.15 66.0629C345.999 66.7039 345.871 67.7176 346.417 68.6443C347.061 69.7404 348.182 70 348.967 70V66ZM367.571 19.8807L359.915 47.7207L363.771 48.7813L371.427 20.9413L367.571 19.8807ZM369.847 18.411H369.499V22.411H369.847V18.411ZM379.517 47.7151L371.774 19.8751L367.92 20.9469L375.663 48.7869L379.517 47.7151ZM361.843 50.251H377.59V46.251H361.843V50.251ZM409.245 62.605H421.512V58.605H409.245V62.605ZM406.288 59.648C406.288 60.2753 406.446 61.1131 407.113 61.78C407.78 62.4468 408.618 62.605 409.245 62.605V58.605C409.246 58.605 409.329 58.6045 409.459 58.6478C409.599 58.6944 409.777 58.787 409.942 58.9515C410.106 59.1161 410.199 59.2944 410.245 59.4342C410.289 59.5643 410.288 59.6468 410.288 59.648H406.288ZM406.288 20.324V59.648H410.288V20.324H406.288ZM409.245 17.454C408.662 17.454 407.852 17.5823 407.182 18.1916C406.476 18.8338 406.288 19.674 406.288 20.324H410.288C410.288 20.394 410.26 20.7992 409.873 21.1514C409.521 21.4707 409.19 21.454 409.245 21.454V17.454ZM421.512 17.454H409.245V21.454H421.512V17.454ZM429.776 25.892C429.776 23.4512 429.183 21.2508 427.643 19.6688C426.094 18.0766 423.922 17.454 421.512 17.454V21.454C423.278 21.454 424.238 21.9044 424.777 22.4582C425.325 23.0222 425.776 24.0408 425.776 25.892H429.776ZM429.776 54.167V25.892H425.776V54.167H429.776ZM421.512 62.605C423.922 62.605 426.094 61.9824 427.643 60.3902C429.183 58.8082 429.776 56.6078 429.776 54.167H425.776C425.776 56.0182 425.325 57.0368 424.777 57.6008C424.238 58.1546 423.278 58.605 421.512 58.605V62.605ZM401.849 66.521V13.538H397.849V66.521H401.849ZM401.328 66C401.143 66 401.372 65.9552 401.633 66.216C401.894 66.4769 401.849 66.7057 401.849 66.521H397.849C397.849 67.3223 398.051 68.2906 398.805 69.0444C399.558 69.7983 400.527 70 401.328 70V66ZM422.73 66H401.328V70H422.73V66ZM431.234 63.0188C429.322 64.9304 426.578 66 422.73 66V70C427.35 70 431.218 68.6916 434.062 65.8472L431.234 63.0188ZM434.302 54.515C434.302 58.3497 433.212 61.0876 431.251 63.0019L434.045 65.8642C436.956 63.0224 438.302 59.1483 438.302 54.515H434.302ZM434.302 25.544V54.515H438.302V25.544H434.302ZM431.269 17.0743C433.206 18.9193 434.302 21.6397 434.302 25.544H438.302C438.302 20.8643 436.962 16.9727 434.027 14.1777L431.269 17.0743ZM422.73 14.059C426.578 14.059 429.322 15.1286 431.234 17.0402L434.062 14.2118C431.218 11.3674 427.35 10.059 422.73 10.059V14.059ZM401.328 14.059H422.73V10.059H401.328V14.059ZM401.849 13.538C401.849 13.3533 401.894 13.5821 401.633 13.8429C401.372 14.1038 401.143 14.059 401.328 14.059V10.059C400.527 10.059 399.558 10.2607 398.805 11.0146C398.051 11.7684 397.849 12.7367 397.849 13.538H401.849Z" fill="#EF2E37" mask="url(#path-1-inside-1_13_31)"/>
</svg>
