<svg width="764" height="445" viewBox="0 0 764 445" fill="none" xmlns="http://www.w3.org/2000/svg">
<path d="M1 1H761.5V298L730.75 334.25L700 370.5L641 443.5H1V298V1Z" fill="#EF2E37" fill-opacity="0.1067"/>
<path d="M761.5 298V1H1V298M761.5 298L730.75 334.25L700 370.5L641 443.5M761.5 298H1M641 443.5H1V298M641 443.5H646.5M641 443.5L644 442L645 443" stroke="#EF2E37" stroke-width="2"/>
<path d="M644.5 442.5L761.5 298.5V0.240601" stroke="#EF2E37" stroke-width="5"/>
<rect x="99" y="332" width="480" height="77" stroke="#EF2E37" stroke-width="2"/>
<path d="M154.834 391.605H167.101C171.277 391.605 173.365 389.459 173.365 385.167V356.892C173.365 352.6 171.277 350.454 167.101 350.454H154.834C154.196 350.454 153.877 350.744 153.877 351.324V390.648C153.877 391.286 154.196 391.605 154.834 391.605ZM145.438 397.521V344.538C145.438 343.552 145.931 343.059 146.917 343.059H168.319C172.553 343.059 175.859 344.248 178.237 346.626C180.673 348.946 181.891 352.252 181.891 356.544V385.515C181.891 389.749 180.673 393.055 178.237 395.433C175.859 397.811 172.553 399 168.319 399H146.917C145.931 399 145.438 398.507 145.438 397.521ZM207.529 391.605H215.098C219.332 391.605 221.449 389.459 221.449 385.167V356.892C221.449 352.6 219.332 350.454 215.098 350.454H207.529C203.353 350.454 201.265 352.6 201.265 356.892V385.167C201.265 389.459 203.353 391.605 207.529 391.605ZM216.403 399H206.311C202.019 399 198.684 397.811 196.306 395.433C193.986 393.055 192.826 389.749 192.826 385.515V356.544C192.826 352.252 193.986 348.946 196.306 346.626C198.684 344.248 202.019 343.059 206.311 343.059H216.403C220.695 343.059 224.03 344.248 226.408 346.626C228.786 348.946 229.975 352.252 229.975 356.544V385.515C229.975 389.749 228.786 393.055 226.408 395.433C224.03 397.811 220.695 399 216.403 399ZM258.577 399H249.355C248.311 399 247.702 398.507 247.528 397.521L237.175 344.538C237.059 343.552 237.552 343.059 238.654 343.059H245.353C246.455 343.059 247.035 343.552 247.093 344.538L254.14 390.126H254.662L264.928 344.364C265.044 343.494 265.566 343.059 266.494 343.059H273.802C274.73 343.059 275.281 343.494 275.455 344.364L285.808 390.126H286.33L293.377 344.625C293.435 343.581 294.015 343.059 295.117 343.059H301.816C302.976 343.059 303.469 343.581 303.295 344.625L292.942 397.521C292.768 398.507 292.188 399 291.202 399H281.98C280.994 399 280.414 398.507 280.24 397.521L270.409 353.499H270.061L260.23 397.521C260.056 398.507 259.505 399 258.577 399ZM318.325 399H312.931C311.945 399 311.452 398.507 311.452 397.521V344.538C311.452 343.552 311.945 343.059 312.931 343.059H317.803C318.731 343.059 319.369 343.378 319.717 344.016L340.771 381.861H341.119V344.538C341.119 343.552 341.612 343.059 342.598 343.059H347.992C348.978 343.059 349.471 343.552 349.471 344.538V397.521C349.471 398.507 348.978 399 347.992 399H343.294C342.366 399 341.612 398.536 341.032 397.608L320.152 360.198H319.804V397.521C319.804 398.507 319.311 399 318.325 399ZM391.84 399H363.652C362.666 399 362.173 398.507 362.173 397.521V344.538C362.173 343.552 362.666 343.059 363.652 343.059H369.133C370.119 343.059 370.612 343.552 370.612 344.538V390.561C370.612 391.141 370.96 391.431 371.656 391.431H391.84C392.826 391.431 393.319 391.953 393.319 392.997V397.521C393.319 398.507 392.826 399 391.84 399ZM415.173 391.605H422.742C426.976 391.605 429.093 389.459 429.093 385.167V356.892C429.093 352.6 426.976 350.454 422.742 350.454H415.173C410.997 350.454 408.909 352.6 408.909 356.892V385.167C408.909 389.459 410.997 391.605 415.173 391.605ZM424.047 399H413.955C409.663 399 406.328 397.811 403.95 395.433C401.63 393.055 400.47 389.749 400.47 385.515V356.544C400.47 352.252 401.63 348.946 403.95 346.626C406.328 344.248 409.663 343.059 413.955 343.059H424.047C428.339 343.059 431.674 344.248 434.052 346.626C436.43 348.946 437.619 352.252 437.619 356.544V385.515C437.619 389.749 436.43 393.055 434.052 395.433C431.674 397.811 428.339 399 424.047 399ZM452.388 399H446.124C445.312 399 445.022 398.507 445.254 397.521L460.392 344.538C460.682 343.552 461.378 343.059 462.48 343.059H471.18C472.34 343.059 473.036 343.552 473.268 344.538L488.406 397.521C488.638 398.507 488.319 399 487.449 399H481.272C480.75 399 480.373 398.913 480.141 398.739C479.967 398.507 479.822 398.101 479.706 397.521L476.4 386.211H457.26L453.954 397.521C453.722 398.507 453.2 399 452.388 399ZM466.656 351.411L459 379.251H474.747L467.004 351.411H466.656ZM506.402 391.605H518.669C522.845 391.605 524.933 389.459 524.933 385.167V356.892C524.933 352.6 522.845 350.454 518.669 350.454H506.402C505.764 350.454 505.445 350.744 505.445 351.324V390.648C505.445 391.286 505.764 391.605 506.402 391.605ZM497.006 397.521V344.538C497.006 343.552 497.499 343.059 498.485 343.059H519.887C524.121 343.059 527.427 344.248 529.805 346.626C532.241 348.946 533.459 352.252 533.459 356.544V385.515C533.459 389.749 532.241 393.055 529.805 395.433C527.427 397.811 524.121 399 519.887 399H498.485C497.499 399 497.006 398.507 497.006 397.521Z" fill="#EE3038"/>
</svg>
