<svg width="468" height="100" viewBox="0 0 468 100" fill="none" xmlns="http://www.w3.org/2000/svg">
<path d="M1.41092 38.3245H466.028V98.4661H1.41092V38.3245ZM466.028 36.3245H1.41092V1.70535H466.028V36.3245Z" fill="#EF2E37" fill-opacity="0.1067" stroke="#EF2E37" stroke-width="2"/>
<path d="M446.923 80.5304V79.4504C446.923 78.9144 447.147 78.4744 447.595 78.1304L449.911 76.3064C450.311 76.0024 450.511 75.6264 450.511 75.1784V74.7464C450.511 74.0664 450.167 73.7264 449.479 73.7264H448.747C448.075 73.7264 447.739 74.0664 447.739 74.7464V75.2384C447.739 75.3584 447.683 75.4184 447.571 75.4184H447.031C446.927 75.4184 446.875 75.3584 446.875 75.2384V74.7344C446.875 74.1824 447.031 73.7544 447.343 73.4504C447.655 73.1384 448.087 72.9824 448.639 72.9824H449.599C450.151 72.9824 450.583 73.1384 450.895 73.4504C451.207 73.7544 451.363 74.1824 451.363 74.7344V75.2264C451.363 75.8504 451.115 76.3584 450.619 76.7504L448.267 78.6104C448.003 78.8184 447.871 79.0704 447.871 79.3664V79.9184H451.219C451.331 79.9184 451.387 79.9744 451.387 80.0864V80.5304C451.387 80.6424 451.331 80.6984 451.219 80.6984H447.091C446.979 80.6984 446.923 80.6424 446.923 80.5304ZM453.66 79.0784V80.5304C453.66 80.6424 453.608 80.6984 453.504 80.6984H452.892C452.788 80.6984 452.736 80.6424 452.736 80.5304V79.0784C452.736 78.9744 452.788 78.9224 452.892 78.9224H453.504C453.608 78.9224 453.66 78.9744 453.66 79.0784ZM456.868 76.9304H458.8V74.7944C458.8 74.0984 458.464 73.7504 457.792 73.7504H456.868C456.204 73.7504 455.872 74.0984 455.872 74.7944V75.8984C455.872 76.5864 456.204 76.9304 456.868 76.9304ZM457.9 80.6984H455.536C455.416 80.6984 455.356 80.6424 455.356 80.5304V80.0864C455.356 79.9824 455.416 79.9304 455.536 79.9304H457.792C458.464 79.9304 458.8 79.5824 458.8 78.8864V77.6984H456.76C456.216 77.6984 455.784 77.5424 455.464 77.2304C455.152 76.9184 454.996 76.4864 454.996 75.9344V74.7584C454.996 74.2064 455.152 73.7744 455.464 73.4624C455.784 73.1424 456.216 72.9824 456.76 72.9824H457.9C458.452 72.9824 458.884 73.1424 459.196 73.4624C459.508 73.7744 459.664 74.2064 459.664 74.7584V78.9224C459.664 79.4824 459.508 79.9184 459.196 80.2304C458.884 80.5424 458.452 80.6984 457.9 80.6984Z" fill="#EF2E37"/>
<path d="M405.965 91.6984H405.437C405.325 91.6984 405.269 91.6424 405.269 91.5304V84.1504C405.269 84.0384 405.325 83.9824 405.437 83.9824H405.929C406.025 83.9824 406.089 84.0144 406.121 84.0784L409.433 89.8984H409.481V84.1504C409.481 84.0384 409.537 83.9824 409.649 83.9824H410.177C410.289 83.9824 410.345 84.0384 410.345 84.1504V91.5304C410.345 91.6424 410.289 91.6984 410.177 91.6984H409.733C409.645 91.6984 409.561 91.6464 409.481 91.5424L406.181 85.7824H406.133V91.5304C406.133 91.6424 406.077 91.6984 405.965 91.6984ZM413.994 90.9304H415.218C415.89 90.9304 416.226 90.5824 416.226 89.8864V85.7944C416.226 85.0984 415.89 84.7504 415.218 84.7504H413.994C413.33 84.7504 412.998 85.0984 412.998 85.7944V89.8864C412.998 90.5824 413.33 90.9304 413.994 90.9304ZM415.326 91.6984H413.898C413.346 91.6984 412.91 91.5424 412.59 91.2304C412.278 90.9184 412.122 90.4824 412.122 89.9224V85.7584C412.122 85.1984 412.278 84.7624 412.59 84.4504C412.91 84.1384 413.346 83.9824 413.898 83.9824H415.326C415.878 83.9824 416.31 84.1424 416.622 84.4624C416.942 84.7744 417.102 85.2064 417.102 85.7584V89.9224C417.102 90.4744 416.942 90.9104 416.622 91.2304C416.31 91.5424 415.878 91.6984 415.326 91.6984ZM419.558 90.0784V91.5304C419.558 91.6424 419.506 91.6984 419.402 91.6984H418.79C418.686 91.6984 418.634 91.6424 418.634 91.5304V90.0784C418.634 89.9744 418.686 89.9224 418.79 89.9224H419.402C419.506 89.9224 419.558 89.9744 419.558 90.0784ZM425.933 90.9304H426.917C427.589 90.9304 427.925 90.5824 427.925 89.8864V85.7944C427.925 85.0984 427.589 84.7504 426.917 84.7504H425.933C425.269 84.7504 424.937 85.0984 424.937 85.7944V89.8864C424.937 90.5824 425.269 90.9304 425.933 90.9304ZM427.025 91.6984H425.825C425.281 91.6984 424.849 91.5424 424.529 91.2304C424.217 90.9184 424.061 90.4824 424.061 89.9224V85.7584C424.061 85.2064 424.217 84.7744 424.529 84.4624C424.849 84.1424 425.281 83.9824 425.825 83.9824H427.025C427.569 83.9824 427.997 84.1424 428.309 84.4624C428.629 84.7744 428.789 85.2064 428.789 85.7584V89.9224C428.789 90.4824 428.629 90.9184 428.309 91.2304C427.997 91.5424 427.569 91.6984 427.025 91.6984ZM432.876 87.4744H431.988C431.652 87.4744 431.432 87.5744 431.328 87.7744C431.224 87.9664 431.12 88.0624 431.016 88.0624H430.464C430.352 88.0624 430.296 88.0064 430.296 87.8944V84.1504C430.296 84.0384 430.352 83.9824 430.464 83.9824H434.436C434.556 83.9824 434.616 84.0384 434.616 84.1504V84.6304C434.616 84.7424 434.556 84.7984 434.436 84.7984H431.172V87.3544C431.324 86.9544 431.664 86.7544 432.192 86.7544H433.056C433.6 86.7544 434.02 86.9024 434.316 87.1984C434.62 87.4944 434.772 87.9184 434.772 88.4704V89.9224C434.772 90.4824 434.616 90.9184 434.304 91.2304C433.992 91.5424 433.56 91.6984 433.008 91.6984H432.024C431.472 91.6984 431.036 91.5424 430.716 91.2304C430.404 90.9184 430.248 90.4824 430.248 89.9224V89.5504C430.248 89.4304 430.304 89.3704 430.416 89.3704H430.956C431.068 89.3704 431.124 89.4304 431.124 89.5504V89.9104C431.124 90.6064 431.456 90.9544 432.12 90.9544H432.9C433.58 90.9544 433.92 90.6064 433.92 89.9104V88.5784C433.92 88.2024 433.836 87.9264 433.668 87.7504C433.5 87.5664 433.236 87.4744 432.876 87.4744ZM437.919 87.9304H439.851V85.7944C439.851 85.0984 439.515 84.7504 438.843 84.7504H437.919C437.255 84.7504 436.923 85.0984 436.923 85.7944V86.8984C436.923 87.5864 437.255 87.9304 437.919 87.9304ZM438.951 91.6984H436.587C436.467 91.6984 436.407 91.6424 436.407 91.5304V91.0864C436.407 90.9824 436.467 90.9304 436.587 90.9304H438.843C439.515 90.9304 439.851 90.5824 439.851 89.8864V88.6984H437.811C437.267 88.6984 436.835 88.5424 436.515 88.2304C436.203 87.9184 436.047 87.4864 436.047 86.9344V85.7584C436.047 85.2064 436.203 84.7744 436.515 84.4624C436.835 84.1424 437.267 83.9824 437.811 83.9824H438.951C439.503 83.9824 439.935 84.1424 440.247 84.4624C440.559 84.7744 440.715 85.2064 440.715 85.7584V89.9224C440.715 90.4824 440.559 90.9184 440.247 91.2304C439.935 91.5424 439.503 91.6984 438.951 91.6984ZM444.097 90.9304H445.081C445.753 90.9304 446.089 90.5824 446.089 89.8864V85.7944C446.089 85.0984 445.753 84.7504 445.081 84.7504H444.097C443.433 84.7504 443.101 85.0984 443.101 85.7944V89.8864C443.101 90.5824 443.433 90.9304 444.097 90.9304ZM445.189 91.6984H443.989C443.445 91.6984 443.013 91.5424 442.693 91.2304C442.381 90.9184 442.225 90.4824 442.225 89.9224V85.7584C442.225 85.2064 442.381 84.7744 442.693 84.4624C443.013 84.1424 443.445 83.9824 443.989 83.9824H445.189C445.733 83.9824 446.161 84.1424 446.473 84.4624C446.793 84.7744 446.953 85.2064 446.953 85.7584V89.9224C446.953 90.4824 446.793 90.9184 446.473 91.2304C446.161 91.5424 445.733 91.6984 445.189 91.6984ZM451.808 89.4064V84.6904L449.096 89.4064H451.808ZM452.468 91.6984H451.964C451.86 91.6984 451.808 91.6424 451.808 91.5304V90.1744H448.472C448.304 90.1744 448.22 90.0904 448.22 89.9224V89.6344C448.22 89.4984 448.248 89.3784 448.304 89.2744L451.232 84.2224C451.304 84.0624 451.424 83.9824 451.592 83.9824H452.372C452.548 83.9824 452.636 84.0664 452.636 84.2344V89.4064H453.524C453.636 89.4064 453.692 89.4584 453.692 89.5624V89.9944C453.692 90.1144 453.636 90.1744 453.524 90.1744H452.636V91.5304C452.636 91.6424 452.58 91.6984 452.468 91.6984ZM456.648 90.9304H457.704C458.376 90.9304 458.712 90.5944 458.712 89.9224V89.2024C458.712 88.5144 458.376 88.1704 457.704 88.1704H456.648C455.976 88.1704 455.64 88.5144 455.64 89.2024V89.9224C455.64 90.5944 455.976 90.9304 456.648 90.9304ZM456.648 87.4624H457.704C458.376 87.4624 458.712 87.1144 458.712 86.4184V85.7584C458.712 85.0864 458.376 84.7504 457.704 84.7504H456.648C455.976 84.7504 455.64 85.0864 455.64 85.7584V86.4184C455.64 87.1144 455.976 87.4624 456.648 87.4624ZM457.812 91.6984H456.54C455.988 91.6984 455.556 91.5504 455.244 91.2544C454.932 90.9504 454.776 90.5264 454.776 89.9824V89.2504C454.776 88.5304 455.056 88.0504 455.616 87.8104C455.056 87.5944 454.776 87.1144 454.776 86.3704V85.6984C454.776 85.1464 454.932 84.7224 455.244 84.4264C455.556 84.1304 455.988 83.9824 456.54 83.9824H457.812C458.364 83.9824 458.796 84.1304 459.108 84.4264C459.42 84.7224 459.576 85.1464 459.576 85.6984V86.3704C459.576 86.7384 459.5 87.0504 459.348 87.3064C459.196 87.5544 458.992 87.7224 458.736 87.8104C459.296 88.0424 459.576 88.5264 459.576 89.2624V89.9824C459.576 90.5264 459.42 90.9504 459.108 91.2544C458.796 91.5504 458.364 91.6984 457.812 91.6984Z" fill="#EF2E37"/>
<path d="M7.85849 81.4124V91.9843H8.38816V81.4124H7.85849ZM8.65299 81.4124V91.9843H9.71233V81.4124H8.65299ZM9.97716 81.4124V91.9843H10.5068V81.4124H9.97716ZM11.0365 81.4124V91.9843H11.5662V81.4124H11.0365ZM12.0958 81.4124V91.9843H12.6255V81.4124H12.0958ZM12.8903 81.4124V91.9843H15.009V81.4124H12.8903ZM15.2738 81.4124V91.9843H15.8035V81.4124H15.2738ZM16.0683 81.4124V91.9843H17.1277V81.4124H16.0683ZM17.3925 81.4124V91.9843H17.9222V81.4124H17.3925ZM18.9815 81.4124V91.9843H19.5112V81.4124H18.9815ZM19.776 81.4124V91.9843H20.8354V81.4124H19.776ZM21.365 81.4124V91.9843H22.4244V81.4124H21.365ZM22.6892 81.4124V91.9843H23.2189V81.4124H22.6892ZM23.7485 81.4124V91.9843H24.2782V81.4124H23.7485ZM24.8079 81.4124V91.9843H25.3375V81.4124H24.8079ZM25.6024 81.4124V91.9843H26.6617V81.4124H25.6024ZM26.9265 81.4124V91.9843H27.4562V81.4124H26.9265ZM27.9859 81.4124V91.9843H28.5155V81.4124H27.9859Z" fill="#EE3038"/>
<path d="M99.936 77.6984H98.262C97.956 77.6984 97.803 77.5454 97.803 77.2394V60.7964C97.803 60.4904 97.956 60.3374 98.262 60.3374H99.774C100.062 60.3374 100.26 60.4364 100.368 60.6344L106.902 72.3794H107.01V60.7964C107.01 60.4904 107.163 60.3374 107.469 60.3374H109.143C109.449 60.3374 109.602 60.4904 109.602 60.7964V77.2394C109.602 77.5454 109.449 77.6984 109.143 77.6984H107.685C107.397 77.6984 107.163 77.5544 106.983 77.2664L100.503 65.6564H100.395V77.2394C100.395 77.5454 100.242 77.6984 99.936 77.6984ZM117.837 75.4034H120.186C121.5 75.4034 122.157 74.7374 122.157 73.4054V64.6304C122.157 63.2984 121.5 62.6324 120.186 62.6324H117.837C116.541 62.6324 115.893 63.2984 115.893 64.6304V73.4054C115.893 74.7374 116.541 75.4034 117.837 75.4034ZM120.591 77.6984H117.459C116.127 77.6984 115.092 77.3294 114.354 76.5914C113.634 75.8534 113.274 74.8274 113.274 73.5134V64.5224C113.274 63.1904 113.634 62.1644 114.354 61.4444C115.092 60.7064 116.127 60.3374 117.459 60.3374H120.591C121.923 60.3374 122.958 60.7064 123.696 61.4444C124.434 62.1644 124.803 63.1904 124.803 64.5224V73.5134C124.803 74.8274 124.434 75.8534 123.696 76.5914C122.958 77.3294 121.923 77.6984 120.591 77.6984ZM133.68 77.6984H130.818C130.494 77.6984 130.305 77.5454 130.251 77.2394L127.038 60.7964C127.002 60.4904 127.155 60.3374 127.497 60.3374H129.576C129.918 60.3374 130.098 60.4904 130.116 60.7964L132.303 74.9444H132.465L135.651 60.7424C135.687 60.4724 135.849 60.3374 136.137 60.3374H138.405C138.693 60.3374 138.864 60.4724 138.918 60.7424L142.131 74.9444H142.293L144.48 60.8234C144.498 60.4994 144.678 60.3374 145.02 60.3374H147.099C147.459 60.3374 147.612 60.4994 147.558 60.8234L144.345 77.2394C144.291 77.5454 144.111 77.6984 143.805 77.6984H140.943C140.637 77.6984 140.457 77.5454 140.403 77.2394L137.352 63.5774H137.244L134.193 77.2394C134.139 77.5454 133.968 77.6984 133.68 77.6984ZM159.439 75.4034H163.246C164.542 75.4034 165.19 74.7374 165.19 73.4054V64.6304C165.19 63.2984 164.542 62.6324 163.246 62.6324H159.439C159.241 62.6324 159.142 62.7224 159.142 62.9024V75.1064C159.142 75.3044 159.241 75.4034 159.439 75.4034ZM156.523 77.2394V60.7964C156.523 60.4904 156.676 60.3374 156.982 60.3374H163.624C164.938 60.3374 165.964 60.7064 166.702 61.4444C167.458 62.1644 167.836 63.1904 167.836 64.5224V73.5134C167.836 74.8274 167.458 75.8534 166.702 76.5914C165.964 77.3294 164.938 77.6984 163.624 77.6984H156.982C156.676 77.6984 156.523 77.5454 156.523 77.2394ZM175.792 75.4034H178.141C179.455 75.4034 180.112 74.7374 180.112 73.4054V64.6304C180.112 63.2984 179.455 62.6324 178.141 62.6324H175.792C174.496 62.6324 173.848 63.2984 173.848 64.6304V73.4054C173.848 74.7374 174.496 75.4034 175.792 75.4034ZM178.546 77.6984H175.414C174.082 77.6984 173.047 77.3294 172.309 76.5914C171.589 75.8534 171.229 74.8274 171.229 73.5134V64.5224C171.229 63.1904 171.589 62.1644 172.309 61.4444C173.047 60.7064 174.082 60.3374 175.414 60.3374H178.546C179.878 60.3374 180.913 60.7064 181.651 61.4444C182.389 62.1644 182.758 63.1904 182.758 64.5224V73.5134C182.758 74.8274 182.389 75.8534 181.651 76.5914C180.913 77.3294 179.878 77.6984 178.546 77.6984ZM191.635 77.6984H188.773C188.449 77.6984 188.26 77.5454 188.206 77.2394L184.993 60.7964C184.957 60.4904 185.11 60.3374 185.452 60.3374H187.531C187.873 60.3374 188.053 60.4904 188.071 60.7964L190.258 74.9444H190.42L193.606 60.7424C193.642 60.4724 193.804 60.3374 194.092 60.3374H196.36C196.648 60.3374 196.819 60.4724 196.873 60.7424L200.086 74.9444H200.248L202.435 60.8234C202.453 60.4994 202.633 60.3374 202.975 60.3374H205.054C205.414 60.3374 205.567 60.4994 205.513 60.8234L202.3 77.2394C202.246 77.5454 202.066 77.6984 201.76 77.6984H198.898C198.592 77.6984 198.412 77.5454 198.358 77.2394L195.307 63.5774H195.199L192.148 77.2394C192.094 77.5454 191.923 77.6984 191.635 77.6984ZM210.177 77.6984H208.503C208.197 77.6984 208.044 77.5454 208.044 77.2394V60.7964C208.044 60.4904 208.197 60.3374 208.503 60.3374H210.015C210.303 60.3374 210.501 60.4364 210.609 60.6344L217.143 72.3794H217.251V60.7964C217.251 60.4904 217.404 60.3374 217.71 60.3374H219.384C219.69 60.3374 219.843 60.4904 219.843 60.7964V77.2394C219.843 77.5454 219.69 77.6984 219.384 77.6984H217.926C217.638 77.6984 217.404 77.5544 217.224 77.2664L210.744 65.6564H210.636V77.2394C210.636 77.5454 210.483 77.6984 210.177 77.6984ZM232.992 77.6984H224.244C223.938 77.6984 223.785 77.5454 223.785 77.2394V60.7964C223.785 60.4904 223.938 60.3374 224.244 60.3374H225.945C226.251 60.3374 226.404 60.4904 226.404 60.7964V75.0794C226.404 75.2594 226.512 75.3494 226.728 75.3494H232.992C233.298 75.3494 233.451 75.5114 233.451 75.8354V77.2394C233.451 77.5454 233.298 77.6984 232.992 77.6984ZM240.234 75.4034H242.583C243.897 75.4034 244.554 74.7374 244.554 73.4054V64.6304C244.554 63.2984 243.897 62.6324 242.583 62.6324H240.234C238.938 62.6324 238.29 63.2984 238.29 64.6304V73.4054C238.29 74.7374 238.938 75.4034 240.234 75.4034ZM242.988 77.6984H239.856C238.524 77.6984 237.489 77.3294 236.751 76.5914C236.031 75.8534 235.671 74.8274 235.671 73.5134V64.5224C235.671 63.1904 236.031 62.1644 236.751 61.4444C237.489 60.7064 238.524 60.3374 239.856 60.3374H242.988C244.32 60.3374 245.355 60.7064 246.093 61.4444C246.831 62.1644 247.2 63.1904 247.2 64.5224V73.5134C247.2 74.8274 246.831 75.8534 246.093 76.5914C245.355 77.3294 244.32 77.6984 242.988 77.6984ZM251.783 77.6984H249.839C249.587 77.6984 249.497 77.5454 249.569 77.2394L254.267 60.7964C254.357 60.4904 254.573 60.3374 254.915 60.3374H257.615C257.975 60.3374 258.191 60.4904 258.263 60.7964L262.961 77.2394C263.033 77.5454 262.934 77.6984 262.664 77.6984H260.747C260.585 77.6984 260.468 77.6714 260.396 77.6174C260.342 77.5454 260.297 77.4194 260.261 77.2394L259.235 73.7294H253.295L252.269 77.2394C252.197 77.5454 252.035 77.6984 251.783 77.6984ZM256.211 62.9294L253.835 71.5694H258.722L256.319 62.9294H256.211ZM268.546 75.4034H272.353C273.649 75.4034 274.297 74.7374 274.297 73.4054V64.6304C274.297 63.2984 273.649 62.6324 272.353 62.6324H268.546C268.348 62.6324 268.249 62.7224 268.249 62.9024V75.1064C268.249 75.3044 268.348 75.4034 268.546 75.4034ZM265.63 77.2394V60.7964C265.63 60.4904 265.783 60.3374 266.089 60.3374H272.731C274.045 60.3374 275.071 60.7064 275.809 61.4444C276.565 62.1644 276.943 63.1904 276.943 64.5224V73.5134C276.943 74.8274 276.565 75.8534 275.809 76.5914C275.071 77.3294 274.045 77.6984 272.731 77.6984H266.089C265.783 77.6984 265.63 77.5454 265.63 77.2394ZM283.361 60.7964V77.2394C283.361 77.5454 283.208 77.6984 282.902 77.6984H281.201C280.895 77.6984 280.742 77.5454 280.742 77.2394V60.7964C280.742 60.4904 280.895 60.3374 281.201 60.3374H282.902C283.208 60.3374 283.361 60.4904 283.361 60.7964ZM289.569 77.6984H287.895C287.589 77.6984 287.436 77.5454 287.436 77.2394V60.7964C287.436 60.4904 287.589 60.3374 287.895 60.3374H289.407C289.695 60.3374 289.893 60.4364 290.001 60.6344L296.535 72.3794H296.643V60.7964C296.643 60.4904 296.796 60.3374 297.102 60.3374H298.776C299.082 60.3374 299.235 60.4904 299.235 60.7964V77.2394C299.235 77.5454 299.082 77.6984 298.776 77.6984H297.318C297.03 77.6984 296.796 77.5544 296.616 77.2664L290.136 65.6564H290.028V77.2394C290.028 77.5454 289.875 77.6984 289.569 77.6984ZM309.981 77.6984H307.092C305.76 77.6984 304.725 77.3294 303.987 76.5914C303.267 75.8534 302.907 74.8274 302.907 73.5134V64.5224C302.907 63.1904 303.267 62.1644 303.987 61.4444C304.725 60.7064 305.76 60.3374 307.092 60.3374H309.981C311.313 60.3374 312.339 60.7064 313.059 61.4444C313.797 62.1644 314.166 63.1904 314.166 64.5224V65.4944C314.166 65.8184 314.013 65.9804 313.707 65.9804H312.006C311.7 65.9804 311.547 65.8184 311.547 65.4944V64.6304C311.547 63.2984 310.899 62.6324 309.603 62.6324H307.47C306.174 62.6324 305.526 63.2984 305.526 64.6304V73.4054C305.526 74.7374 306.174 75.4034 307.47 75.4034H309.603C310.899 75.4034 311.547 74.7374 311.547 73.4054V70.9754C311.547 70.7954 311.448 70.7054 311.25 70.7054H309.063C308.757 70.7054 308.604 70.5524 308.604 70.2464V68.8694C308.604 68.5634 308.757 68.4104 309.063 68.4104H313.599C313.977 68.4104 314.166 68.5994 314.166 68.9774V73.5134C314.166 74.8274 313.797 75.8534 313.059 76.5914C312.321 77.3294 311.295 77.6984 309.981 77.6984ZM329.489 64.5764V62.9834C329.489 62.6954 329.615 62.4794 329.867 62.3354L332.675 60.6344C333.017 60.4364 333.305 60.3374 333.539 60.3374H335.159C335.465 60.3374 335.618 60.4904 335.618 60.7964V77.2394C335.618 77.5454 335.474 77.6984 335.186 77.6984H333.431C333.125 77.6984 332.972 77.5454 332.972 77.2394V63.1454L330.029 64.8464C329.669 65.0084 329.489 64.9184 329.489 64.5764ZM343.749 75.4034H345.666C346.962 75.4034 347.61 74.7374 347.61 73.4054V64.6304C347.61 63.2984 346.962 62.6324 345.666 62.6324H343.749C342.453 62.6324 341.805 63.2984 341.805 64.6304V73.4054C341.805 74.7374 342.453 75.4034 343.749 75.4034ZM346.044 77.6984H343.344C342.012 77.6984 340.977 77.3294 340.239 76.5914C339.501 75.8534 339.132 74.8274 339.132 73.5134V64.5224C339.132 63.1904 339.501 62.1644 340.239 61.4444C340.977 60.7064 342.012 60.3374 343.344 60.3374H346.044C347.358 60.3374 348.384 60.7064 349.122 61.4444C349.86 62.1644 350.229 63.1904 350.229 64.5224V73.5134C350.229 74.8274 349.86 75.8534 349.122 76.5914C348.384 77.3294 347.358 77.6984 346.044 77.6984ZM366.951 71.1104H366.411C365.853 71.1104 365.475 71.2184 365.277 71.4344C365.079 71.6504 364.98 72.0374 364.98 72.5954V74.6204C364.98 75.1784 365.079 75.5744 365.277 75.8084C365.475 76.0244 365.853 76.1324 366.411 76.1324H366.951C367.491 76.1324 367.86 76.0244 368.058 75.8084C368.274 75.5744 368.382 75.1784 368.382 74.6204V72.5954C368.382 72.0374 368.274 71.6504 368.058 71.4344C367.86 71.2184 367.491 71.1104 366.951 71.1104ZM366.033 69.5444H367.275C369.237 69.5444 370.218 70.5344 370.218 72.5144V74.7284C370.218 76.7084 369.237 77.6984 367.275 77.6984H366.033C364.071 77.6984 363.09 76.7084 363.09 74.7284V72.5144C363.09 70.5344 364.071 69.5444 366.033 69.5444ZM357.042 61.8494H356.475C355.935 61.8494 355.557 61.9574 355.341 62.1734C355.143 62.3894 355.044 62.7764 355.044 63.3344V65.3864C355.044 65.9444 355.143 66.3314 355.341 66.5474C355.557 66.7634 355.935 66.8714 356.475 66.8714H357.042C357.582 66.8714 357.951 66.7634 358.149 66.5474C358.347 66.3134 358.446 65.9264 358.446 65.3864V63.3344C358.446 62.7944 358.347 62.4164 358.149 62.2004C357.951 61.9664 357.582 61.8494 357.042 61.8494ZM356.124 60.2834H357.366C359.328 60.2834 360.309 61.2734 360.309 63.2534V65.4674C360.309 67.4474 359.328 68.4374 357.366 68.4374H356.124C354.162 68.4374 353.181 67.4474 353.181 65.4674V63.2534C353.181 61.2734 354.162 60.2834 356.124 60.2834ZM358.716 77.6984H357.663C357.339 77.6984 357.231 77.5364 357.339 77.2124C357.753 76.1324 358.878 73.3784 360.714 68.9504C362.55 64.5224 363.666 61.8134 364.062 60.8234C364.206 60.4994 364.404 60.3374 364.656 60.3374H365.736C366.078 60.3374 366.186 60.5084 366.06 60.8504L359.337 77.2124C359.229 77.5364 359.022 77.6984 358.716 77.6984Z" fill="#15FFFC"/>
</svg>
