<svg width="468" height="100" viewBox="0 0 468 100" fill="none" xmlns="http://www.w3.org/2000/svg">
<g id="download-percent">
<g id="Vector 3">
<path d="M0.410919 0.705353H467.028V37.3245V99.4661H0.410919V37.3245V0.705353Z" fill="#EF2E37" fill-opacity="0.1067"/>
<path d="M0.410919 37.3245V99.4661H467.028V37.3245M0.410919 37.3245V0.705353H467.028V37.3245M0.410919 37.3245H467.028" stroke="#EF2E37" stroke-width="2"/>
</g>
<path id="2.9" d="M446.923 80.5304V79.4504C446.923 78.9144 447.147 78.4744 447.595 78.1304L449.911 76.3064C450.311 76.0024 450.511 75.6264 450.511 75.1784V74.7464C450.511 74.0664 450.167 73.7264 449.479 73.7264H448.747C448.075 73.7264 447.739 74.0664 447.739 74.7464V75.2384C447.739 75.3584 447.683 75.4184 447.571 75.4184H447.031C446.927 75.4184 446.875 75.3584 446.875 75.2384V74.7344C446.875 74.1824 447.031 73.7544 447.343 73.4504C447.655 73.1384 448.087 72.9824 448.639 72.9824H449.599C450.151 72.9824 450.583 73.1384 450.895 73.4504C451.207 73.7544 451.363 74.1824 451.363 74.7344V75.2264C451.363 75.8504 451.115 76.3584 450.619 76.7504L448.267 78.6104C448.003 78.8184 447.871 79.0704 447.871 79.3664V79.9184H451.219C451.331 79.9184 451.387 79.9744 451.387 80.0864V80.5304C451.387 80.6424 451.331 80.6984 451.219 80.6984H447.091C446.979 80.6984 446.923 80.6424 446.923 80.5304ZM453.66 79.0784V80.5304C453.66 80.6424 453.608 80.6984 453.504 80.6984H452.892C452.788 80.6984 452.736 80.6424 452.736 80.5304V79.0784C452.736 78.9744 452.788 78.9224 452.892 78.9224H453.504C453.608 78.9224 453.66 78.9744 453.66 79.0784ZM456.868 76.9304H458.8V74.7944C458.8 74.0984 458.464 73.7504 457.792 73.7504H456.868C456.204 73.7504 455.872 74.0984 455.872 74.7944V75.8984C455.872 76.5864 456.204 76.9304 456.868 76.9304ZM457.9 80.6984H455.536C455.416 80.6984 455.356 80.6424 455.356 80.5304V80.0864C455.356 79.9824 455.416 79.9304 455.536 79.9304H457.792C458.464 79.9304 458.8 79.5824 458.8 78.8864V77.6984H456.76C456.216 77.6984 455.784 77.5424 455.464 77.2304C455.152 76.9184 454.996 76.4864 454.996 75.9344V74.7584C454.996 74.2064 455.152 73.7744 455.464 73.4624C455.784 73.1424 456.216 72.9824 456.76 72.9824H457.9C458.452 72.9824 458.884 73.1424 459.196 73.4624C459.508 73.7744 459.664 74.2064 459.664 74.7584V78.9224C459.664 79.4824 459.508 79.9184 459.196 80.2304C458.884 80.5424 458.452 80.6984 457.9 80.6984Z" fill="#EF2E37"/>
<path id="NO. 059048" d="M405.965 91.6984H405.437C405.325 91.6984 405.269 91.6424 405.269 91.5304V84.1504C405.269 84.0384 405.325 83.9824 405.437 83.9824H405.929C406.025 83.9824 406.089 84.0144 406.121 84.0784L409.433 89.8984H409.481V84.1504C409.481 84.0384 409.537 83.9824 409.649 83.9824H410.177C410.289 83.9824 410.345 84.0384 410.345 84.1504V91.5304C410.345 91.6424 410.289 91.6984 410.177 91.6984H409.733C409.645 91.6984 409.561 91.6464 409.481 91.5424L406.181 85.7824H406.133V91.5304C406.133 91.6424 406.077 91.6984 405.965 91.6984ZM413.994 90.9304H415.218C415.89 90.9304 416.226 90.5824 416.226 89.8864V85.7944C416.226 85.0984 415.89 84.7504 415.218 84.7504H413.994C413.33 84.7504 412.998 85.0984 412.998 85.7944V89.8864C412.998 90.5824 413.33 90.9304 413.994 90.9304ZM415.326 91.6984H413.898C413.346 91.6984 412.91 91.5424 412.59 91.2304C412.278 90.9184 412.122 90.4824 412.122 89.9224V85.7584C412.122 85.1984 412.278 84.7624 412.59 84.4504C412.91 84.1384 413.346 83.9824 413.898 83.9824H415.326C415.878 83.9824 416.31 84.1424 416.622 84.4624C416.942 84.7744 417.102 85.2064 417.102 85.7584V89.9224C417.102 90.4744 416.942 90.9104 416.622 91.2304C416.31 91.5424 415.878 91.6984 415.326 91.6984ZM419.558 90.0784V91.5304C419.558 91.6424 419.506 91.6984 419.402 91.6984H418.79C418.686 91.6984 418.634 91.6424 418.634 91.5304V90.0784C418.634 89.9744 418.686 89.9224 418.79 89.9224H419.402C419.506 89.9224 419.558 89.9744 419.558 90.0784ZM425.933 90.9304H426.917C427.589 90.9304 427.925 90.5824 427.925 89.8864V85.7944C427.925 85.0984 427.589 84.7504 426.917 84.7504H425.933C425.269 84.7504 424.937 85.0984 424.937 85.7944V89.8864C424.937 90.5824 425.269 90.9304 425.933 90.9304ZM427.025 91.6984H425.825C425.281 91.6984 424.849 91.5424 424.529 91.2304C424.217 90.9184 424.061 90.4824 424.061 89.9224V85.7584C424.061 85.2064 424.217 84.7744 424.529 84.4624C424.849 84.1424 425.281 83.9824 425.825 83.9824H427.025C427.569 83.9824 427.997 84.1424 428.309 84.4624C428.629 84.7744 428.789 85.2064 428.789 85.7584V89.9224C428.789 90.4824 428.629 90.9184 428.309 91.2304C427.997 91.5424 427.569 91.6984 427.025 91.6984ZM432.876 87.4744H431.988C431.652 87.4744 431.432 87.5744 431.328 87.7744C431.224 87.9664 431.12 88.0624 431.016 88.0624H430.464C430.352 88.0624 430.296 88.0064 430.296 87.8944V84.1504C430.296 84.0384 430.352 83.9824 430.464 83.9824H434.436C434.556 83.9824 434.616 84.0384 434.616 84.1504V84.6304C434.616 84.7424 434.556 84.7984 434.436 84.7984H431.172V87.3544C431.324 86.9544 431.664 86.7544 432.192 86.7544H433.056C433.6 86.7544 434.02 86.9024 434.316 87.1984C434.62 87.4944 434.772 87.9184 434.772 88.4704V89.9224C434.772 90.4824 434.616 90.9184 434.304 91.2304C433.992 91.5424 433.56 91.6984 433.008 91.6984H432.024C431.472 91.6984 431.036 91.5424 430.716 91.2304C430.404 90.9184 430.248 90.4824 430.248 89.9224V89.5504C430.248 89.4304 430.304 89.3704 430.416 89.3704H430.956C431.068 89.3704 431.124 89.4304 431.124 89.5504V89.9104C431.124 90.6064 431.456 90.9544 432.12 90.9544H432.9C433.58 90.9544 433.92 90.6064 433.92 89.9104V88.5784C433.92 88.2024 433.836 87.9264 433.668 87.7504C433.5 87.5664 433.236 87.4744 432.876 87.4744ZM437.919 87.9304H439.851V85.7944C439.851 85.0984 439.515 84.7504 438.843 84.7504H437.919C437.255 84.7504 436.923 85.0984 436.923 85.7944V86.8984C436.923 87.5864 437.255 87.9304 437.919 87.9304ZM438.951 91.6984H436.587C436.467 91.6984 436.407 91.6424 436.407 91.5304V91.0864C436.407 90.9824 436.467 90.9304 436.587 90.9304H438.843C439.515 90.9304 439.851 90.5824 439.851 89.8864V88.6984H437.811C437.267 88.6984 436.835 88.5424 436.515 88.2304C436.203 87.9184 436.047 87.4864 436.047 86.9344V85.7584C436.047 85.2064 436.203 84.7744 436.515 84.4624C436.835 84.1424 437.267 83.9824 437.811 83.9824H438.951C439.503 83.9824 439.935 84.1424 440.247 84.4624C440.559 84.7744 440.715 85.2064 440.715 85.7584V89.9224C440.715 90.4824 440.559 90.9184 440.247 91.2304C439.935 91.5424 439.503 91.6984 438.951 91.6984ZM444.097 90.9304H445.081C445.753 90.9304 446.089 90.5824 446.089 89.8864V85.7944C446.089 85.0984 445.753 84.7504 445.081 84.7504H444.097C443.433 84.7504 443.101 85.0984 443.101 85.7944V89.8864C443.101 90.5824 443.433 90.9304 444.097 90.9304ZM445.189 91.6984H443.989C443.445 91.6984 443.013 91.5424 442.693 91.2304C442.381 90.9184 442.225 90.4824 442.225 89.9224V85.7584C442.225 85.2064 442.381 84.7744 442.693 84.4624C443.013 84.1424 443.445 83.9824 443.989 83.9824H445.189C445.733 83.9824 446.161 84.1424 446.473 84.4624C446.793 84.7744 446.953 85.2064 446.953 85.7584V89.9224C446.953 90.4824 446.793 90.9184 446.473 91.2304C446.161 91.5424 445.733 91.6984 445.189 91.6984ZM451.808 89.4064V84.6904L449.096 89.4064H451.808ZM452.468 91.6984H451.964C451.86 91.6984 451.808 91.6424 451.808 91.5304V90.1744H448.472C448.304 90.1744 448.22 90.0904 448.22 89.9224V89.6344C448.22 89.4984 448.248 89.3784 448.304 89.2744L451.232 84.2224C451.304 84.0624 451.424 83.9824 451.592 83.9824H452.372C452.548 83.9824 452.636 84.0664 452.636 84.2344V89.4064H453.524C453.636 89.4064 453.692 89.4584 453.692 89.5624V89.9944C453.692 90.1144 453.636 90.1744 453.524 90.1744H452.636V91.5304C452.636 91.6424 452.58 91.6984 452.468 91.6984ZM456.648 90.9304H457.704C458.376 90.9304 458.712 90.5944 458.712 89.9224V89.2024C458.712 88.5144 458.376 88.1704 457.704 88.1704H456.648C455.976 88.1704 455.64 88.5144 455.64 89.2024V89.9224C455.64 90.5944 455.976 90.9304 456.648 90.9304ZM456.648 87.4624H457.704C458.376 87.4624 458.712 87.1144 458.712 86.4184V85.7584C458.712 85.0864 458.376 84.7504 457.704 84.7504H456.648C455.976 84.7504 455.64 85.0864 455.64 85.7584V86.4184C455.64 87.1144 455.976 87.4624 456.648 87.4624ZM457.812 91.6984H456.54C455.988 91.6984 455.556 91.5504 455.244 91.2544C454.932 90.9504 454.776 90.5264 454.776 89.9824V89.2504C454.776 88.5304 455.056 88.0504 455.616 87.8104C455.056 87.5944 454.776 87.1144 454.776 86.3704V85.6984C454.776 85.1464 454.932 84.7224 455.244 84.4264C455.556 84.1304 455.988 83.9824 456.54 83.9824H457.812C458.364 83.9824 458.796 84.1304 459.108 84.4264C459.42 84.7224 459.576 85.1464 459.576 85.6984V86.3704C459.576 86.7384 459.5 87.0504 459.348 87.3064C459.196 87.5544 458.992 87.7224 458.736 87.8104C459.296 88.0424 459.576 88.5264 459.576 89.2624V89.9824C459.576 90.5264 459.42 90.9504 459.108 91.2544C458.796 91.5504 458.364 91.6984 457.812 91.6984Z" fill="#EF2E37"/>
<g id="Barcode">
<path id="Vector" d="M7.85849 81.4124V91.9843H8.38816V81.4124H7.85849ZM8.65299 81.4124V91.9843H9.71233V81.4124H8.65299ZM9.97716 81.4124V91.9843H10.5068V81.4124H9.97716ZM11.0365 81.4124V91.9843H11.5662V81.4124H11.0365ZM12.0958 81.4124V91.9843H12.6255V81.4124H12.0958ZM12.8903 81.4124V91.9843H15.009V81.4124H12.8903ZM15.2738 81.4124V91.9843H15.8035V81.4124H15.2738ZM16.0683 81.4124V91.9843H17.1277V81.4124H16.0683ZM17.3925 81.4124V91.9843H17.9222V81.4124H17.3925ZM18.9815 81.4124V91.9843H19.5112V81.4124H18.9815ZM19.776 81.4124V91.9843H20.8354V81.4124H19.776ZM21.365 81.4124V91.9843H22.4244V81.4124H21.365ZM22.6892 81.4124V91.9843H23.2189V81.4124H22.6892ZM23.7485 81.4124V91.9843H24.2782V81.4124H23.7485ZM24.8079 81.4124V91.9843H25.3375V81.4124H24.8079ZM25.6024 81.4124V91.9843H26.6617V81.4124H25.6024ZM26.9265 81.4124V91.9843H27.4562V81.4124H26.9265ZM27.9859 81.4124V91.9843H28.5155V81.4124H27.9859Z" fill="#EE3038"/>
</g>
<path id="NOW DOWNLOADING..." d="M119.738 75.6984H118.064C117.758 75.6984 117.605 75.5454 117.605 75.2394V58.7964C117.605 58.4904 117.758 58.3374 118.064 58.3374H119.576C119.864 58.3374 120.062 58.4364 120.17 58.6344L126.704 70.3794H126.812V58.7964C126.812 58.4904 126.965 58.3374 127.271 58.3374H128.945C129.251 58.3374 129.404 58.4904 129.404 58.7964V75.2394C129.404 75.5454 129.251 75.6984 128.945 75.6984H127.487C127.199 75.6984 126.965 75.5544 126.785 75.2664L120.305 63.6564H120.197V75.2394C120.197 75.5454 120.044 75.6984 119.738 75.6984ZM137.639 73.4034H139.988C141.302 73.4034 141.959 72.7374 141.959 71.4054V62.6304C141.959 61.2984 141.302 60.6324 139.988 60.6324H137.639C136.343 60.6324 135.695 61.2984 135.695 62.6304V71.4054C135.695 72.7374 136.343 73.4034 137.639 73.4034ZM140.393 75.6984H137.261C135.929 75.6984 134.894 75.3294 134.156 74.5914C133.436 73.8534 133.076 72.8274 133.076 71.5134V62.5224C133.076 61.1904 133.436 60.1644 134.156 59.4444C134.894 58.7064 135.929 58.3374 137.261 58.3374H140.393C141.725 58.3374 142.76 58.7064 143.498 59.4444C144.236 60.1644 144.605 61.1904 144.605 62.5224V71.5134C144.605 72.8274 144.236 73.8534 143.498 74.5914C142.76 75.3294 141.725 75.6984 140.393 75.6984ZM153.481 75.6984H150.619C150.295 75.6984 150.106 75.5454 150.052 75.2394L146.839 58.7964C146.803 58.4904 146.956 58.3374 147.298 58.3374H149.377C149.719 58.3374 149.899 58.4904 149.917 58.7964L152.104 72.9444H152.266L155.452 58.7424C155.488 58.4724 155.65 58.3374 155.938 58.3374H158.206C158.494 58.3374 158.665 58.4724 158.719 58.7424L161.932 72.9444H162.094L164.281 58.8234C164.299 58.4994 164.479 58.3374 164.821 58.3374H166.9C167.26 58.3374 167.413 58.4994 167.359 58.8234L164.146 75.2394C164.092 75.5454 163.912 75.6984 163.606 75.6984H160.744C160.438 75.6984 160.258 75.5454 160.204 75.2394L157.153 61.5774H157.045L153.994 75.2394C153.94 75.5454 153.769 75.6984 153.481 75.6984ZM179.241 73.4034H183.048C184.344 73.4034 184.992 72.7374 184.992 71.4054V62.6304C184.992 61.2984 184.344 60.6324 183.048 60.6324H179.241C179.043 60.6324 178.944 60.7224 178.944 60.9024V73.1064C178.944 73.3044 179.043 73.4034 179.241 73.4034ZM176.325 75.2394V58.7964C176.325 58.4904 176.478 58.3374 176.784 58.3374H183.426C184.74 58.3374 185.766 58.7064 186.504 59.4444C187.26 60.1644 187.638 61.1904 187.638 62.5224V71.5134C187.638 72.8274 187.26 73.8534 186.504 74.5914C185.766 75.3294 184.74 75.6984 183.426 75.6984H176.784C176.478 75.6984 176.325 75.5454 176.325 75.2394ZM195.594 73.4034H197.943C199.257 73.4034 199.914 72.7374 199.914 71.4054V62.6304C199.914 61.2984 199.257 60.6324 197.943 60.6324H195.594C194.298 60.6324 193.65 61.2984 193.65 62.6304V71.4054C193.65 72.7374 194.298 73.4034 195.594 73.4034ZM198.348 75.6984H195.216C193.884 75.6984 192.849 75.3294 192.111 74.5914C191.391 73.8534 191.031 72.8274 191.031 71.5134V62.5224C191.031 61.1904 191.391 60.1644 192.111 59.4444C192.849 58.7064 193.884 58.3374 195.216 58.3374H198.348C199.68 58.3374 200.715 58.7064 201.453 59.4444C202.191 60.1644 202.56 61.1904 202.56 62.5224V71.5134C202.56 72.8274 202.191 73.8534 201.453 74.5914C200.715 75.3294 199.68 75.6984 198.348 75.6984ZM211.437 75.6984H208.575C208.251 75.6984 208.062 75.5454 208.008 75.2394L204.795 58.7964C204.759 58.4904 204.912 58.3374 205.254 58.3374H207.333C207.675 58.3374 207.855 58.4904 207.873 58.7964L210.06 72.9444H210.222L213.408 58.7424C213.444 58.4724 213.606 58.3374 213.894 58.3374H216.162C216.45 58.3374 216.621 58.4724 216.675 58.7424L219.888 72.9444H220.05L222.237 58.8234C222.255 58.4994 222.435 58.3374 222.777 58.3374H224.856C225.216 58.3374 225.369 58.4994 225.315 58.8234L222.102 75.2394C222.048 75.5454 221.868 75.6984 221.562 75.6984H218.7C218.394 75.6984 218.214 75.5454 218.16 75.2394L215.109 61.5774H215.001L211.95 75.2394C211.896 75.5454 211.725 75.6984 211.437 75.6984ZM229.979 75.6984H228.305C227.999 75.6984 227.846 75.5454 227.846 75.2394V58.7964C227.846 58.4904 227.999 58.3374 228.305 58.3374H229.817C230.105 58.3374 230.303 58.4364 230.411 58.6344L236.945 70.3794H237.053V58.7964C237.053 58.4904 237.206 58.3374 237.512 58.3374H239.186C239.492 58.3374 239.645 58.4904 239.645 58.7964V75.2394C239.645 75.5454 239.492 75.6984 239.186 75.6984H237.728C237.44 75.6984 237.206 75.5544 237.026 75.2664L230.546 63.6564H230.438V75.2394C230.438 75.5454 230.285 75.6984 229.979 75.6984ZM252.794 75.6984H244.046C243.74 75.6984 243.587 75.5454 243.587 75.2394V58.7964C243.587 58.4904 243.74 58.3374 244.046 58.3374H245.747C246.053 58.3374 246.206 58.4904 246.206 58.7964V73.0794C246.206 73.2594 246.314 73.3494 246.53 73.3494H252.794C253.1 73.3494 253.253 73.5114 253.253 73.8354V75.2394C253.253 75.5454 253.1 75.6984 252.794 75.6984ZM260.035 73.4034H262.384C263.698 73.4034 264.355 72.7374 264.355 71.4054V62.6304C264.355 61.2984 263.698 60.6324 262.384 60.6324H260.035C258.739 60.6324 258.091 61.2984 258.091 62.6304V71.4054C258.091 72.7374 258.739 73.4034 260.035 73.4034ZM262.789 75.6984H259.657C258.325 75.6984 257.29 75.3294 256.552 74.5914C255.832 73.8534 255.472 72.8274 255.472 71.5134V62.5224C255.472 61.1904 255.832 60.1644 256.552 59.4444C257.29 58.7064 258.325 58.3374 259.657 58.3374H262.789C264.121 58.3374 265.156 58.7064 265.894 59.4444C266.632 60.1644 267.001 61.1904 267.001 62.5224V71.5134C267.001 72.8274 266.632 73.8534 265.894 74.5914C265.156 75.3294 264.121 75.6984 262.789 75.6984ZM271.585 75.6984H269.641C269.389 75.6984 269.299 75.5454 269.371 75.2394L274.069 58.7964C274.159 58.4904 274.375 58.3374 274.717 58.3374H277.417C277.777 58.3374 277.993 58.4904 278.065 58.7964L282.763 75.2394C282.835 75.5454 282.736 75.6984 282.466 75.6984H280.549C280.387 75.6984 280.27 75.6714 280.198 75.6174C280.144 75.5454 280.099 75.4194 280.063 75.2394L279.037 71.7294H273.097L272.071 75.2394C271.999 75.5454 271.837 75.6984 271.585 75.6984ZM276.013 60.9294L273.637 69.5694H278.524L276.121 60.9294H276.013ZM288.348 73.4034H292.155C293.451 73.4034 294.099 72.7374 294.099 71.4054V62.6304C294.099 61.2984 293.451 60.6324 292.155 60.6324H288.348C288.15 60.6324 288.051 60.7224 288.051 60.9024V73.1064C288.051 73.3044 288.15 73.4034 288.348 73.4034ZM285.432 75.2394V58.7964C285.432 58.4904 285.585 58.3374 285.891 58.3374H292.533C293.847 58.3374 294.873 58.7064 295.611 59.4444C296.367 60.1644 296.745 61.1904 296.745 62.5224V71.5134C296.745 72.8274 296.367 73.8534 295.611 74.5914C294.873 75.3294 293.847 75.6984 292.533 75.6984H285.891C285.585 75.6984 285.432 75.5454 285.432 75.2394ZM303.163 58.7964V75.2394C303.163 75.5454 303.01 75.6984 302.704 75.6984H301.003C300.697 75.6984 300.544 75.5454 300.544 75.2394V58.7964C300.544 58.4904 300.697 58.3374 301.003 58.3374H302.704C303.01 58.3374 303.163 58.4904 303.163 58.7964ZM309.371 75.6984H307.697C307.391 75.6984 307.238 75.5454 307.238 75.2394V58.7964C307.238 58.4904 307.391 58.3374 307.697 58.3374H309.209C309.497 58.3374 309.695 58.4364 309.803 58.6344L316.337 70.3794H316.445V58.7964C316.445 58.4904 316.598 58.3374 316.904 58.3374H318.578C318.884 58.3374 319.037 58.4904 319.037 58.7964V75.2394C319.037 75.5454 318.884 75.6984 318.578 75.6984H317.12C316.832 75.6984 316.598 75.5544 316.418 75.2664L309.938 63.6564H309.83V75.2394C309.83 75.5454 309.677 75.6984 309.371 75.6984ZM329.783 75.6984H326.894C325.562 75.6984 324.527 75.3294 323.789 74.5914C323.069 73.8534 322.709 72.8274 322.709 71.5134V62.5224C322.709 61.1904 323.069 60.1644 323.789 59.4444C324.527 58.7064 325.562 58.3374 326.894 58.3374H329.783C331.115 58.3374 332.141 58.7064 332.861 59.4444C333.599 60.1644 333.968 61.1904 333.968 62.5224V63.4944C333.968 63.8184 333.815 63.9804 333.509 63.9804H331.808C331.502 63.9804 331.349 63.8184 331.349 63.4944V62.6304C331.349 61.2984 330.701 60.6324 329.405 60.6324H327.272C325.976 60.6324 325.328 61.2984 325.328 62.6304V71.4054C325.328 72.7374 325.976 73.4034 327.272 73.4034H329.405C330.701 73.4034 331.349 72.7374 331.349 71.4054V68.9754C331.349 68.7954 331.25 68.7054 331.052 68.7054H328.865C328.559 68.7054 328.406 68.5524 328.406 68.2464V66.8694C328.406 66.5634 328.559 66.4104 328.865 66.4104H333.401C333.779 66.4104 333.968 66.5994 333.968 66.9774V71.5134C333.968 72.8274 333.599 73.8534 332.861 74.5914C332.123 75.3294 331.097 75.6984 329.783 75.6984ZM339.718 71.9454V75.2394C339.718 75.5454 339.574 75.6984 339.286 75.6984H337.45C337.144 75.6984 336.991 75.5454 336.991 75.2394V71.9454C336.991 71.6574 337.144 71.5134 337.45 71.5134H339.286C339.574 71.5134 339.718 71.6574 339.718 71.9454ZM345.097 71.9454V75.2394C345.097 75.5454 344.953 75.6984 344.665 75.6984H342.829C342.523 75.6984 342.37 75.5454 342.37 75.2394V71.9454C342.37 71.6574 342.523 71.5134 342.829 71.5134H344.665C344.953 71.5134 345.097 71.6574 345.097 71.9454ZM350.476 71.9454V75.2394C350.476 75.5454 350.332 75.6984 350.044 75.6984H348.208C347.902 75.6984 347.749 75.5454 347.749 75.2394V71.9454C347.749 71.6574 347.902 71.5134 348.208 71.5134H350.044C350.332 71.5134 350.476 71.6574 350.476 71.9454Z" fill="#15FFFC"/>
<!-- <rect
					id="progress-bar"
					x="1.44264"
					y="9"
					width="464.511"
					height="15"
					fill="#15FFFC"
				>
					
				</rect> -->
</g>
</svg>
