<svg width="482" height="86" viewBox="0 0 482 86" fill="none" xmlns="http://www.w3.org/2000/svg">
<rect x="1" y="1" width="480" height="77" stroke="#EF2E37" stroke-width="2"/>
<path d="M56.8339 60.605H69.1009C73.2769 60.605 75.3649 58.459 75.3649 54.167V25.892C75.3649 21.6 73.2769 19.454 69.1009 19.454H56.8339C56.1959 19.454 55.8769 19.744 55.8769 20.324V59.648C55.8769 60.286 56.1959 60.605 56.8339 60.605ZM47.4379 66.521V13.538C47.4379 12.552 47.9309 12.059 48.9169 12.059H70.3189C74.5529 12.059 77.8589 13.248 80.2369 15.626C82.6729 17.946 83.8909 21.252 83.8909 25.544V54.515C83.8909 58.749 82.6729 62.055 80.2369 64.433C77.8589 66.811 74.5529 68 70.3189 68H48.9169C47.9309 68 47.4379 67.507 47.4379 66.521ZM109.529 60.605H117.098C121.332 60.605 123.449 58.459 123.449 54.167V25.892C123.449 21.6 121.332 19.454 117.098 19.454H109.529C105.353 19.454 103.265 21.6 103.265 25.892V54.167C103.265 58.459 105.353 60.605 109.529 60.605ZM118.403 68H108.311C104.019 68 100.684 66.811 98.3057 64.433C95.9857 62.055 94.8257 58.749 94.8257 54.515V25.544C94.8257 21.252 95.9857 17.946 98.3057 15.626C100.684 13.248 104.019 12.059 108.311 12.059H118.403C122.695 12.059 126.03 13.248 128.408 15.626C130.786 17.946 131.975 21.252 131.975 25.544V54.515C131.975 58.749 130.786 62.055 128.408 64.433C126.03 66.811 122.695 68 118.403 68ZM160.577 68H151.355C150.311 68 149.702 67.507 149.528 66.521L139.175 13.538C139.059 12.552 139.552 12.059 140.654 12.059H147.353C148.455 12.059 149.035 12.552 149.093 13.538L156.14 59.126H156.662L166.928 13.364C167.044 12.494 167.566 12.059 168.494 12.059H175.802C176.73 12.059 177.281 12.494 177.455 13.364L187.808 59.126H188.33L195.377 13.625C195.435 12.581 196.015 12.059 197.117 12.059H203.816C204.976 12.059 205.469 12.581 205.295 13.625L194.942 66.521C194.768 67.507 194.188 68 193.202 68H183.98C182.994 68 182.414 67.507 182.24 66.521L172.409 22.499H172.061L162.23 66.521C162.056 67.507 161.505 68 160.577 68ZM220.325 68H214.931C213.945 68 213.452 67.507 213.452 66.521V13.538C213.452 12.552 213.945 12.059 214.931 12.059H219.803C220.731 12.059 221.369 12.378 221.717 13.016L242.771 50.861H243.119V13.538C243.119 12.552 243.612 12.059 244.598 12.059H249.992C250.978 12.059 251.471 12.552 251.471 13.538V66.521C251.471 67.507 250.978 68 249.992 68H245.294C244.366 68 243.612 67.536 243.032 66.608L222.152 29.198H221.804V66.521C221.804 67.507 221.311 68 220.325 68ZM293.84 68H265.652C264.666 68 264.173 67.507 264.173 66.521V13.538C264.173 12.552 264.666 12.059 265.652 12.059H271.133C272.119 12.059 272.612 12.552 272.612 13.538V59.561C272.612 60.141 272.96 60.431 273.656 60.431H293.84C294.826 60.431 295.319 60.953 295.319 61.997V66.521C295.319 67.507 294.826 68 293.84 68ZM317.173 60.605H324.742C328.976 60.605 331.093 58.459 331.093 54.167V25.892C331.093 21.6 328.976 19.454 324.742 19.454H317.173C312.997 19.454 310.909 21.6 310.909 25.892V54.167C310.909 58.459 312.997 60.605 317.173 60.605ZM326.047 68H315.955C311.663 68 308.328 66.811 305.95 64.433C303.63 62.055 302.47 58.749 302.47 54.515V25.544C302.47 21.252 303.63 17.946 305.95 15.626C308.328 13.248 311.663 12.059 315.955 12.059H326.047C330.339 12.059 333.674 13.248 336.052 15.626C338.43 17.946 339.619 21.252 339.619 25.544V54.515C339.619 58.749 338.43 62.055 336.052 64.433C333.674 66.811 330.339 68 326.047 68ZM354.388 68H348.124C347.312 68 347.022 67.507 347.254 66.521L362.392 13.538C362.682 12.552 363.378 12.059 364.48 12.059H373.18C374.34 12.059 375.036 12.552 375.268 13.538L390.406 66.521C390.638 67.507 390.319 68 389.449 68H383.272C382.75 68 382.373 67.913 382.141 67.739C381.967 67.507 381.822 67.101 381.706 66.521L378.4 55.211H359.26L355.954 66.521C355.722 67.507 355.2 68 354.388 68ZM368.656 20.411L361 48.251H376.747L369.004 20.411H368.656ZM408.402 60.605H420.669C424.845 60.605 426.933 58.459 426.933 54.167V25.892C426.933 21.6 424.845 19.454 420.669 19.454H408.402C407.764 19.454 407.445 19.744 407.445 20.324V59.648C407.445 60.286 407.764 60.605 408.402 60.605ZM399.006 66.521V13.538C399.006 12.552 399.499 12.059 400.485 12.059H421.887C426.121 12.059 429.427 13.248 431.805 15.626C434.241 17.946 435.459 21.252 435.459 25.544V54.515C435.459 58.749 434.241 62.055 431.805 64.433C429.427 66.811 426.121 68 421.887 68H400.485C399.499 68 399.006 67.507 399.006 66.521Z" fill="#EE3038"/>
</svg>
