<svg width="495" height="86" viewBox="0 0 495 86" fill="none" xmlns="http://www.w3.org/2000/svg">
<rect x="51.517" y="1.78668" width="442.444" height="77" fill="#EF2E37" fill-opacity="0.1067" stroke="#EF2E37" stroke-width="2"/>
<path d="M181.038 66H153.198C152.212 66 151.719 65.507 151.719 64.521V11.538C151.719 10.552 152.212 10.059 153.198 10.059H181.038C181.966 10.059 182.43 10.552 182.43 11.538V15.975C182.43 16.961 181.966 17.454 181.038 17.454H161.202C160.506 17.454 160.158 17.744 160.158 18.324V33.027C160.158 33.607 160.506 33.897 161.202 33.897H177.993C179.037 33.897 179.559 34.39 179.559 35.376V39.813C179.559 40.799 179.037 41.292 177.993 41.292H161.202C160.506 41.292 160.158 41.582 160.158 42.162V57.648C160.158 58.286 160.506 58.605 161.202 58.605H181.038C181.966 58.605 182.43 59.098 182.43 60.084V64.521C182.43 65.507 181.966 66 181.038 66ZM200.48 66H194.999C194.013 66 193.52 65.507 193.52 64.521V11.538C193.52 10.552 194.013 10.059 194.999 10.059H215.357C219.591 10.059 222.897 11.277 225.275 13.713C227.711 16.091 228.929 19.397 228.929 23.631V30.939C228.929 37.609 226.174 41.814 220.664 43.554V43.902L230.321 64.26C230.959 65.42 230.582 66 229.19 66H223.796C222.404 66 221.505 65.507 221.099 64.521L211.79 44.511H203.003C202.307 44.511 201.959 44.801 201.959 45.381V64.521C201.959 65.507 201.466 66 200.48 66ZM202.916 37.551H213.965C218.257 37.551 220.403 35.434 220.403 31.2V23.892C220.403 19.6 218.257 17.454 213.965 17.454H202.916C202.278 17.454 201.959 17.744 201.959 18.324V36.681C201.959 37.261 202.278 37.551 202.916 37.551ZM247.633 66H242.152C241.166 66 240.673 65.507 240.673 64.521V11.538C240.673 10.552 241.166 10.059 242.152 10.059H262.51C266.744 10.059 270.05 11.277 272.428 13.713C274.864 16.091 276.082 19.397 276.082 23.631V30.939C276.082 37.609 273.327 41.814 267.817 43.554V43.902L277.474 64.26C278.112 65.42 277.735 66 276.343 66H270.949C269.557 66 268.658 65.507 268.252 64.521L258.943 44.511H250.156C249.46 44.511 249.112 44.801 249.112 45.381V64.521C249.112 65.507 248.619 66 247.633 66ZM250.069 37.551H261.118C265.41 37.551 267.556 35.434 267.556 31.2V23.892C267.556 19.6 265.41 17.454 261.118 17.454H250.069C249.431 17.454 249.112 17.744 249.112 18.324V36.681C249.112 37.261 249.431 37.551 250.069 37.551ZM301.66 58.605H309.229C313.463 58.605 315.58 56.459 315.58 52.167V23.892C315.58 19.6 313.463 17.454 309.229 17.454H301.66C297.484 17.454 295.396 19.6 295.396 23.892V52.167C295.396 56.459 297.484 58.605 301.66 58.605ZM310.534 66H300.442C296.15 66 292.815 64.811 290.437 62.433C288.117 60.055 286.957 56.749 286.957 52.515V23.544C286.957 19.252 288.117 15.946 290.437 13.626C292.815 11.248 296.15 10.059 300.442 10.059H310.534C314.826 10.059 318.161 11.248 320.539 13.626C322.917 15.946 324.106 19.252 324.106 23.544V52.515C324.106 56.749 322.917 60.055 320.539 62.433C318.161 64.811 314.826 66 310.534 66ZM342.79 66H337.309C336.323 66 335.83 65.507 335.83 64.521V11.538C335.83 10.552 336.323 10.059 337.309 10.059H357.667C361.901 10.059 365.207 11.277 367.585 13.713C370.021 16.091 371.239 19.397 371.239 23.631V30.939C371.239 37.609 368.484 41.814 362.974 43.554V43.902L372.631 64.26C373.269 65.42 372.892 66 371.5 66H366.106C364.714 66 363.815 65.507 363.409 64.521L354.1 44.511H345.313C344.617 44.511 344.269 44.801 344.269 45.381V64.521C344.269 65.507 343.776 66 342.79 66ZM345.226 37.551H356.275C360.567 37.551 362.713 35.434 362.713 31.2V23.892C362.713 19.6 360.567 17.454 356.275 17.454H345.226C344.588 17.454 344.269 17.744 344.269 18.324V36.681C344.269 37.261 344.588 37.551 345.226 37.551Z" fill="#EE3038"/>
<path d="M17.4362 6.41094H18.0318L18.3155 5.88718L20.5363 1.78668H41.4072V19.4746L38.4905 23.3019L38.2858 23.5704V23.908V38.2432V42.405V56.7403V57.0779L38.4905 57.3464L41.4072 61.1737V78.8616H20.5363L18.3155 74.7611L18.0318 74.2373H17.4362H1.78885V42.405V38.2432V6.41094H17.4362Z" fill="#EF2E37" fill-opacity="0.1067" stroke="#EF2E37" stroke-width="2"/>
<path d="M389 12V38H390.303V12H389ZM390.954 12V38H393.559V12H390.954ZM394.211 12V38H395.513V12H394.211ZM396.816 12V38H398.118V12H396.816ZM399.421 12V38H400.724V12H399.421ZM401.375 12V38H406.586V12H401.375ZM407.237 12V38H408.539V12H407.237ZM409.191 12V38H411.796V12H409.191ZM412.447 12V38H413.75V12H412.447ZM416.355 12V38H417.658V12H416.355ZM418.309 12V38H420.914V12H418.309ZM422.217 12V38H424.822V12H422.217ZM425.474 12V38H426.776V12H425.474ZM428.079 12V38H429.382V12H428.079ZM430.684 12V38H431.987V12H430.684ZM432.638 12V38H435.243V12H432.638ZM435.895 12V38H437.197V12H435.895ZM438.5 12V38H439.803V12H438.5ZM441.105 12V38H442.408V12H441.105ZM443.059 12V38H445.664V12H443.059ZM446.316 12V38H447.618V12H446.316ZM448.27 12V38H450.875V12H448.27ZM452.829 12V38H454.132V12H452.829ZM455.434 12V38H456.737V12H455.434ZM457.388 12V38H459.993V12H457.388ZM460.645 12V38H461.947V12H460.645ZM463.25 12V38H464.553V12H463.25ZM465.855 12V38H467.158V12H465.855ZM467.809 12V38H470.414V12H467.809ZM471.717 12V38H474.322V12H471.717ZM474.974 12V38H476.276V12H474.974ZM477.579 12V38H478.882V12H477.579ZM480.184 12V38H481.487V12H480.184ZM482.138 12V38H484.743V12H482.138ZM486.697 12V38H488V12H486.697Z" fill="#EE3038"/>
<path d="M448.712 48.89V48.01C448.712 47.5433 448.912 47.16 449.312 46.86L451.282 45.36C451.622 45.1 451.792 44.7667 451.792 44.36V43.97C451.792 43.33 451.476 43.01 450.842 43.01H450.122C449.496 43.01 449.182 43.33 449.182 43.97V44.42C449.182 44.5 449.146 44.54 449.072 44.54H448.782C448.709 44.54 448.672 44.5 448.672 44.42V43.96C448.672 43.5267 448.799 43.1867 449.052 42.94C449.306 42.6933 449.649 42.57 450.082 42.57H450.892C451.326 42.57 451.666 42.6933 451.912 42.94C452.166 43.18 452.292 43.52 452.292 43.96V44.38C452.292 44.9 452.082 45.32 451.662 45.64L449.672 47.17C449.392 47.3833 449.252 47.6467 449.252 47.96V48.54H452.212C452.286 48.54 452.322 48.5767 452.322 48.65V48.89C452.322 48.9633 452.286 49 452.212 49H448.832C448.752 49 448.712 48.9633 448.712 48.89ZM455.688 45.38H454.828C454.668 45.38 454.534 45.4067 454.428 45.46C454.321 45.5133 454.251 45.5733 454.218 45.64C454.131 45.8067 454.051 45.89 453.978 45.89H453.658C453.591 45.89 453.558 45.8533 453.558 45.78V42.69C453.558 42.61 453.591 42.57 453.658 42.57H456.908C456.988 42.57 457.028 42.6067 457.028 42.68V42.93C457.028 43.0033 456.988 43.04 456.908 43.04H454.058V45.44C454.178 45.1133 454.464 44.95 454.918 44.95H455.758C456.191 44.95 456.531 45.07 456.778 45.31C457.024 45.55 457.148 45.89 457.148 46.33V47.58C457.148 48.02 457.021 48.3667 456.768 48.62C456.514 48.8733 456.171 49 455.738 49H454.938C454.504 49 454.161 48.8733 453.908 48.62C453.661 48.3667 453.538 48.02 453.538 47.58V47.23C453.538 47.15 453.571 47.11 453.638 47.11H453.928C454.001 47.11 454.038 47.15 454.038 47.23V47.57C454.038 47.8833 454.118 48.1267 454.278 48.3C454.438 48.4733 454.671 48.56 454.978 48.56H455.698C456.004 48.56 456.238 48.4767 456.398 48.31C456.564 48.1367 456.648 47.89 456.648 47.57V46.37C456.648 45.71 456.328 45.38 455.688 45.38ZM459.822 48.55H460.742C461.049 48.55 461.282 48.4667 461.442 48.3C461.602 48.1267 461.682 47.88 461.682 47.56V44.01C461.682 43.69 461.602 43.4467 461.442 43.28C461.282 43.1067 461.049 43.02 460.742 43.02H459.822C459.515 43.02 459.282 43.1067 459.122 43.28C458.962 43.4467 458.882 43.69 458.882 44.01V47.56C458.882 47.88 458.962 48.1267 459.122 48.3C459.282 48.4667 459.515 48.55 459.822 48.55ZM460.782 49H459.782C459.349 49 459.005 48.8733 458.752 48.62C458.499 48.3667 458.372 48.02 458.372 47.58V43.99C458.372 43.55 458.499 43.2033 458.752 42.95C459.005 42.6967 459.349 42.57 459.782 42.57H460.782C461.215 42.57 461.555 42.6967 461.802 42.95C462.055 43.2033 462.182 43.55 462.182 43.99V47.58C462.182 48.02 462.055 48.3667 461.802 48.62C461.555 48.8733 461.215 49 460.782 49ZM464.959 48.55H465.879C466.185 48.55 466.419 48.4667 466.579 48.3C466.739 48.1267 466.819 47.88 466.819 47.56V44.01C466.819 43.69 466.739 43.4467 466.579 43.28C466.419 43.1067 466.185 43.02 465.879 43.02H464.959C464.652 43.02 464.419 43.1067 464.259 43.28C464.099 43.4467 464.019 43.69 464.019 44.01V47.56C464.019 47.88 464.099 48.1267 464.259 48.3C464.419 48.4667 464.652 48.55 464.959 48.55ZM465.919 49H464.919C464.485 49 464.142 48.8733 463.889 48.62C463.635 48.3667 463.509 48.02 463.509 47.58V43.99C463.509 43.55 463.635 43.2033 463.889 42.95C464.142 42.6967 464.485 42.57 464.919 42.57H465.919C466.352 42.57 466.692 42.6967 466.939 42.95C467.192 43.2033 467.319 43.55 467.319 43.99V47.58C467.319 48.02 467.192 48.3667 466.939 48.62C466.692 48.8733 466.352 49 465.919 49ZM468.585 48.89V48.01C468.585 47.5433 468.785 47.16 469.185 46.86L471.155 45.36C471.495 45.1 471.665 44.7667 471.665 44.36V43.97C471.665 43.33 471.349 43.01 470.715 43.01H469.995C469.369 43.01 469.055 43.33 469.055 43.97V44.42C469.055 44.5 469.019 44.54 468.945 44.54H468.655C468.582 44.54 468.545 44.5 468.545 44.42V43.96C468.545 43.5267 468.672 43.1867 468.925 42.94C469.179 42.6933 469.522 42.57 469.955 42.57H470.765C471.199 42.57 471.539 42.6933 471.785 42.94C472.039 43.18 472.165 43.52 472.165 43.96V44.38C472.165 44.9 471.955 45.32 471.535 45.64L469.545 47.17C469.265 47.3833 469.125 47.6467 469.125 47.96V48.54H472.085C472.159 48.54 472.195 48.5767 472.195 48.65V48.89C472.195 48.9633 472.159 49 472.085 49H468.705C468.625 49 468.585 48.9633 468.585 48.89ZM475.011 45.54H475.611C476.244 45.54 476.561 45.2233 476.561 44.59V43.97C476.561 43.33 476.244 43.01 475.611 43.01H474.841C474.207 43.01 473.891 43.33 473.891 43.97V44.33C473.891 44.4033 473.857 44.44 473.791 44.44H473.501C473.427 44.44 473.391 44.4033 473.391 44.33V43.96C473.391 43.5267 473.517 43.1867 473.771 42.94C474.024 42.6933 474.367 42.57 474.801 42.57H475.651C476.084 42.57 476.427 42.6933 476.681 42.94C476.934 43.1867 477.061 43.5267 477.061 43.96V44.6C477.061 45.2133 476.784 45.6 476.231 45.76C476.784 45.9133 477.061 46.3033 477.061 46.93V47.61C477.061 48.0433 476.934 48.3833 476.681 48.63C476.427 48.8767 476.084 49 475.651 49H474.801C474.367 49 474.024 48.8767 473.771 48.63C473.517 48.3833 473.391 48.0433 473.391 47.61V47.16C473.391 47.08 473.427 47.04 473.501 47.04H473.791C473.857 47.04 473.891 47.08 473.891 47.16V47.6C473.891 48.24 474.207 48.56 474.841 48.56H475.611C476.244 48.56 476.561 48.24 476.561 47.6V46.94C476.561 46.3 476.244 45.98 475.611 45.98H475.011C474.937 45.98 474.901 45.9433 474.901 45.87V45.65C474.901 45.5767 474.937 45.54 475.011 45.54ZM479.732 45.97H481.532V44.01C481.532 43.69 481.448 43.4467 481.282 43.28C481.122 43.1067 480.888 43.02 480.582 43.02H479.732C479.425 43.02 479.192 43.1067 479.032 43.28C478.872 43.4467 478.792 43.69 478.792 44.01V44.98C478.792 45.3 478.872 45.5467 479.032 45.72C479.192 45.8867 479.425 45.97 479.732 45.97ZM480.622 49H478.712C478.632 49 478.592 48.9633 478.592 48.89V48.65C478.592 48.5833 478.632 48.55 478.712 48.55H480.582C480.888 48.55 481.122 48.4667 481.282 48.3C481.442 48.1267 481.522 47.88 481.522 47.56V46.42H479.692C479.258 46.42 478.915 46.2933 478.662 46.04C478.408 45.7867 478.282 45.44 478.282 45V43.99C478.282 43.55 478.408 43.2033 478.662 42.95C478.915 42.6967 479.258 42.57 479.692 42.57H480.622C481.055 42.57 481.398 42.6967 481.652 42.95C481.905 43.2033 482.032 43.55 482.032 43.99V47.58C482.032 48.02 481.905 48.3667 481.652 48.62C481.398 48.8733 481.055 49 480.622 49ZM486.202 47.24V42.97L483.682 47.24H486.202ZM486.582 49H486.312C486.239 49 486.202 48.96 486.202 48.88V47.69H483.302C483.202 47.69 483.152 47.6433 483.152 47.55V47.37C483.152 47.31 483.176 47.2333 483.222 47.14L485.842 42.72C485.902 42.62 485.982 42.57 486.082 42.57H486.552C486.646 42.57 486.692 42.62 486.692 42.72V47.24H487.442C487.516 47.24 487.552 47.2733 487.552 47.34V47.58C487.552 47.6533 487.516 47.69 487.442 47.69H486.692V48.88C486.692 48.96 486.656 49 486.582 49Z" fill="#EE3038"/>
<path d="M63.9772 66.1283L96.5003 9.51685L129.023 66.1283H63.9772Z" stroke="#EF2E37"/>
<path d="M105.542 24.5942L105.678 24.4103C105.912 24.0928 105.938 23.6672 105.743 23.3238L97.3637 8.52481C96.9822 7.85106 96.0127 7.84781 95.6267 8.51898L87.1015 23.3416C86.9094 23.6756 86.9263 24.0903 87.145 24.4076L87.4373 24.8318" stroke="#EF2E37" stroke-width="1.5" stroke-linecap="round"/>
<path d="M111.401 66.4605L111.533 66.7214C111.702 67.0571 112.044 67.2698 112.419 67.2721L129.407 67.3788C130.177 67.3836 130.661 66.5486 130.276 65.8783L121.819 51.1415C121.598 50.7563 121.151 50.5626 120.721 50.6657L120.544 50.7081" stroke="#EF2E37" stroke-width="1.5" stroke-linecap="round"/>
<path d="M72.2954 50.8182V50.8182C71.8625 50.6785 71.3904 50.8611 71.162 51.2567L62.7349 65.8524C62.3493 66.5203 62.8277 67.3552 63.5961 67.3552L80.5576 67.3552C80.9444 67.3552 81.2969 67.1308 81.4622 66.7794L81.6793 66.3176" stroke="#EF2E37" stroke-width="1.5" stroke-linecap="round"/>
<path d="M93.936 37.5964V32.0164C93.936 31.5124 94.188 31.2604 94.692 31.2604H98.112C98.616 31.2604 98.868 31.5124 98.868 32.0164V37.5964C98.868 38.5564 98.808 39.6364 98.688 40.8364C98.592 42.0124 98.52 42.8884 98.472 43.4644C98.424 44.0404 98.376 44.5084 98.328 44.8684C98.28 45.2284 98.256 45.4204 98.256 45.4444C98.16 45.9484 97.884 46.2004 97.428 46.2004H95.376C94.92 46.2004 94.644 45.9484 94.548 45.4444C94.548 45.4204 94.524 45.2284 94.476 44.8684C94.428 44.5084 94.368 44.0404 94.296 43.4644C94.248 42.8884 94.2 42.2644 94.152 41.5924C94.008 39.6244 93.936 38.2924 93.936 37.5964ZM98.76 49.2244V53.6524C98.76 54.1564 98.52 54.4084 98.04 54.4084H94.872C94.392 54.4084 94.152 54.1444 94.152 53.6164V49.2604C94.152 48.7804 94.392 48.5404 94.872 48.5404H98.04C98.52 48.5404 98.76 48.7684 98.76 49.2244Z" fill="#EF2E37"/>
</svg>
